<?xml version="1.0" encoding="UTF-8"?> <svg xmlns="http://www.w3.org/2000/svg" width="220" height="50" viewBox="0 0 220 50" fill="none"><g clip-path="url(#clip0_22484_19039)"><path d="M102.626 15.4585C104.088 15.9745 105.363 16.9522 106.396 18.1016C105.788 18.7538 105.169 19.395 104.558 20.0445C104.156 19.6324 103.745 19.2411 103.267 18.9165C102.515 18.3849 101.648 18.0389 100.737 17.907C99.6966 17.7713 98.6239 17.8877 97.6535 18.2962C96.9085 18.603 96.262 19.0736 95.6866 19.6371C94.7005 20.6524 94.0024 21.9405 93.7415 23.3414C93.55 24.3806 93.5585 25.4468 93.7666 26.4828C94.0295 27.7694 94.6624 28.9496 95.5436 29.9122C96.2354 30.6322 97.0478 31.2139 97.9916 31.5463C99.2417 31.9866 100.655 31.9877 101.897 31.5176C102.941 31.1315 103.799 30.46 104.557 29.6518C105.076 30.2075 105.599 30.7611 106.12 31.3141C106.258 31.4231 106.19 31.647 106.204 31.8061C105.325 32.7833 104.234 33.6009 103.021 34.1044C100.655 35.0722 97.8079 34.8661 95.6292 33.5096C94.618 32.8746 93.717 32.0456 93.0205 31.0705C91.99 29.6821 91.3457 28.023 91.1386 26.3023C90.9325 24.5978 91.078 22.7978 91.6697 21.1809C92.2739 19.5191 93.3424 18.0625 94.678 16.9245C95.7314 16.0329 96.9867 15.3985 98.3427 15.1465C99.7676 14.8731 101.257 14.967 102.626 15.4585ZM56.0615 15.459C60.4692 15.4631 64.8768 15.459 69.2845 15.4616L69.2839 18.2925C67.5132 18.2946 65.7424 18.2915 63.9716 18.2941C63.9726 23.6143 63.9716 28.9339 63.9716 34.2541H61.3864C61.3869 28.9339 61.3859 23.6148 61.3869 18.2957C59.613 18.292 57.838 18.2915 56.0631 18.2957C56.0554 17.3501 56.0549 16.4045 56.0615 15.459Z" fill="#7A7B7B"></path><path fill-rule="evenodd" clip-rule="evenodd" d="M87.3336 20.0264C86.492 18.4137 85.2414 17.0249 83.6809 16.0962C81.5293 14.8096 78.7489 14.6536 76.4433 15.6057C75.0988 16.1676 73.9651 17.089 73.0369 18.2108C71.9152 19.5652 71.1466 21.2056 70.8628 22.9503C70.6087 24.4962 70.6614 26.1109 71.0433 27.6318C71.4821 29.3416 72.3962 30.9099 73.6369 32.1511C74.5552 33.1007 75.6717 33.8478 76.9202 34.2746C79.1929 35.0327 81.7844 34.7943 83.8291 33.5129C85.5362 32.4443 86.9021 30.8129 87.6847 28.9476C88.2701 27.5379 88.508 26.0134 88.4569 24.4894C88.4204 22.9461 88.0489 21.3944 87.3336 20.0264ZM81.4661 18.1513C80.6105 17.8633 79.7016 17.7944 78.8079 17.8988C77.8341 18.0179 76.9078 18.3873 76.1193 18.9709C74.8917 19.8772 73.9792 21.2196 73.5524 22.6904C73.2258 23.832 73.1741 25.0591 73.3729 26.2289C73.6181 27.6694 74.3214 29.0311 75.3503 30.0605C76.1752 30.8953 77.2077 31.5042 78.356 31.7463C79.4611 31.9763 80.6449 31.8965 81.6978 31.4807C83.7586 30.6589 85.304 28.6732 85.7282 26.4918C85.9569 25.3404 85.9412 24.1537 85.6823 23.0087C85.4199 21.8593 84.8579 20.7965 84.0842 19.9158C83.3642 19.1207 82.4856 18.4899 81.4661 18.1513ZM125.605 19.6816C124.83 18.3188 123.755 17.1386 122.445 16.2861C120.1 14.7334 116.921 14.5789 114.416 15.8285C112.67 16.7076 111.239 18.2463 110.323 19.9711C109.526 21.4722 109.164 23.1543 109.161 24.8515C109.165 26.6285 109.55 28.3805 110.422 29.9337C111.243 31.3873 112.419 32.676 113.838 33.5509C116.269 35.0431 119.517 35.0901 121.997 33.6856C122.644 33.3203 123.245 32.8654 123.784 32.3509C125.012 31.1963 125.951 29.7172 126.452 28.0988C126.876 26.7198 126.996 25.2621 126.877 23.8268C126.753 22.3706 126.333 20.9473 125.605 19.6816ZM120.657 18.457C119.613 17.9264 118.439 17.7621 117.284 17.8972C116.165 18.0326 115.111 18.4951 114.254 19.2266C113.593 19.7692 113.052 20.4663 112.63 21.2103C112.006 22.3184 111.713 23.5805 111.72 24.8509C111.713 26.1355 112.016 27.4132 112.653 28.5292C113.234 29.5591 114.051 30.4388 115.061 31.0492C116.794 32.1156 119.091 32.1469 120.861 31.1483C121.88 30.5692 122.739 29.7109 123.34 28.6977C123.964 27.6621 124.283 26.4814 124.338 25.2736C124.398 24.0412 124.205 22.8005 123.689 21.6762C123.055 20.3014 122.009 19.1353 120.657 18.457ZM161.022 17.8158C160.019 16.7457 158.815 15.8749 157.418 15.4137C155.888 14.8993 154.199 14.8638 152.642 15.276C151.245 15.6464 150.003 16.417 148.978 17.4339C147.826 18.5749 146.918 20.004 146.431 21.5598C145.965 22.993 145.855 24.5129 145.991 26.0103C146.151 27.7409 146.753 29.4224 147.761 30.8353C148.789 32.2716 150.141 33.4857 151.789 34.1405C154.082 35.0405 156.812 34.8683 158.934 33.5885C160.329 32.7522 161.501 31.5292 162.328 30.1242C163.183 28.6758 163.628 27.0146 163.68 25.333C163.742 23.9285 163.555 22.4916 163.068 21.1706C162.618 19.9268 161.905 18.793 161.022 17.8158ZM159.192 19.7833C158.545 19.1076 157.786 18.5603 156.911 18.2296C155.878 17.8315 154.715 17.7589 153.632 17.9635C152.493 18.1826 151.452 18.7664 150.629 19.5861C149.564 20.6396 148.855 21.9997 148.601 23.4762C148.51 24.0438 148.454 24.637 148.493 25.212C148.541 26.3609 148.84 27.5087 149.41 28.5083C150.084 29.7203 151.138 30.7701 152.397 31.3513C153.416 31.824 154.56 31.9701 155.668 31.8136C156.826 31.6534 157.896 31.1155 158.763 30.3318C159.771 29.4318 160.496 28.2581 160.849 26.9536C161.144 25.8631 161.19 24.6996 161.024 23.5826C160.809 22.1607 160.171 20.8366 159.192 19.7833ZM130.023 15.4607L136.758 15.4612C137.32 15.4576 137.883 15.4654 138.435 15.5864C140.366 15.9944 142.012 17.5429 142.482 19.4864C142.733 20.5539 142.709 21.7487 142.298 22.7739C141.957 23.6202 141.323 24.2802 140.553 24.7445C141.543 25.2089 142.364 25.9743 142.744 27.0245C143.088 27.948 143.108 29.0103 142.944 29.9739C142.76 31.0148 142.241 31.9668 141.465 32.6849C140.639 33.4753 139.615 34.032 138.482 34.1989C138.123 34.2589 137.768 34.2569 137.409 34.2548C137.312 34.2541 137.215 34.2541 137.117 34.2548H135.345C133.571 34.2548 131.796 34.2548 130.022 34.2537V27.0224C130.022 23.1683 130.021 19.3143 130.023 15.4607ZM132.582 18.2984C133.485 18.2911 134.391 18.2922 135.298 18.2932C135.925 18.2943 136.552 18.2948 137.177 18.2932C137.813 18.2854 138.442 18.4492 138.965 18.8202C139.466 19.1619 139.857 19.6471 139.999 20.2497C140.138 20.8508 140.079 21.5426 139.76 22.0795C139.275 22.9038 138.299 23.4183 137.36 23.4334H132.577C132.578 22.8282 132.577 22.2209 132.577 21.6125C132.575 20.5064 132.574 19.3988 132.582 18.2984ZM135.536 26.2654C134.55 26.2654 133.563 26.2638 132.582 26.2706C132.575 27.3753 132.574 28.48 132.577 29.5847C132.577 30.193 132.578 30.8003 132.577 31.4061H135.118L137.658 31.4056C138.213 31.4014 138.759 31.2683 139.232 30.9699C139.634 30.7038 139.995 30.4169 140.225 29.9796C140.548 29.3676 140.578 28.5866 140.331 27.9428C140.173 27.5275 139.89 27.1988 139.55 26.9238C139.025 26.484 138.336 26.2555 137.657 26.2649C136.952 26.2675 136.244 26.2664 135.536 26.2659V26.2654Z" fill="#7A7B7B"></path></g><defs><clipPath id="clip0_22484_19039"><rect width="108" height="20.3478" fill="white" transform="translate(56 14.8262)"></rect></clipPath></defs></svg> 