<?xml version="1.0" encoding="UTF-8"?> <svg xmlns="http://www.w3.org/2000/svg" width="220" height="50" viewBox="0 0 220 50" fill="none"><g clip-path="url(#clip0_22484_19015)"><path d="M150.58 7.4594C150.671 8.59138 150.369 9.71728 149.532 10.5118C148.74 11.2792 147.677 11.5378 146.6 11.4547C146.578 10.9127 146.592 10.3815 146.762 9.86173C146.903 9.3971 147.143 8.96849 147.465 8.60547C147.787 8.24246 148.184 7.95369 148.629 7.7591C149.25 7.47898 149.907 7.4243 150.58 7.4594ZM66.1728 13.4237C67.8246 13.5317 69.3993 14.1169 70.7763 15.0309C70.8533 16.4491 70.9626 17.8672 70.9964 19.2861C70.32 17.9165 69.3089 16.5557 67.9839 15.7646C67.0085 15.1699 65.8596 14.9438 64.729 15.068C63.2643 15.1861 61.8582 15.8105 60.8424 16.8865C59.5929 18.1852 59.0037 19.9739 58.9146 21.7525C58.8518 23.2963 59.0469 24.8805 59.5713 26.3371C60.0735 27.7391 60.9274 29.0911 62.1127 30.0071C63.0476 30.7395 64.2052 31.2039 65.4013 31.1931C66.5454 31.2019 67.6761 30.9838 68.6514 30.3541C69.6747 29.6986 70.4719 28.6632 71.1955 27.702C71.074 28.5829 70.9242 29.459 70.7986 30.3399C70.7662 30.5336 70.7446 30.7395 70.6771 30.9258C70.4874 31.1256 70.239 31.2754 70.0122 31.43C68.6285 32.344 66.9626 32.8597 65.3048 32.8394C63.4377 32.8327 61.5801 32.2738 60.0324 31.2221C58.7012 30.3219 57.6313 29.0862 56.9307 27.6399C56.1241 25.9699 55.848 24.0799 56.0782 22.2419C56.438 19.2544 58.0985 16.4639 60.625 14.8243C62.2605 13.7538 64.2268 13.2469 66.1728 13.4237ZM87.7276 13.7572C88.7928 13.7558 89.8593 13.7551 90.9244 13.7572C90.6679 14.4214 90.5498 15.0262 90.5552 15.7403C90.5457 19.0384 90.5552 22.3378 90.5505 25.6358C90.5451 26.7455 90.7982 27.8734 91.4043 28.8124C91.8925 29.5847 92.6073 30.1875 93.4509 30.5383C94.5519 30.994 95.8398 30.9805 96.9427 30.5383C97.8778 30.1614 98.6681 29.4957 99.1986 28.6382C99.7453 27.7668 99.9951 26.7577 100.002 25.7323V15.8389C100.003 15.1126 99.8952 14.42 99.5887 13.7578C100.345 13.7558 101.101 13.7565 101.858 13.7565C101.579 14.4585 101.49 15.1841 101.495 15.9367C101.494 19.2341 101.494 22.5335 101.495 25.8316C101.498 27.2727 101.113 28.7523 100.332 29.9686C99.6569 31.0277 98.6849 31.8883 97.5401 32.4034C95.2599 33.4375 92.4371 33.077 90.5268 31.4401C89.2025 30.3183 88.4046 28.7091 88.1711 26.9973C88.0563 26.248 88.0914 25.517 88.0881 24.763C88.0867 21.9179 88.0881 19.0728 88.0881 16.227C88.082 15.7768 88.0881 15.3191 88.0341 14.8709C87.9855 14.4781 87.8538 14.1291 87.7276 13.7572ZM135.389 13.7551H138.742C138.338 14.7568 138.385 15.7511 138.374 16.8082L138.374 30.9373C139.515 30.94 140.656 30.9379 141.798 30.9393C142.385 30.9393 142.961 30.9109 143.537 30.782C144.139 30.6578 144.677 30.427 145.248 30.2069C145.051 30.9973 144.848 31.7864 144.646 32.5748C141.564 32.5728 138.482 32.5748 135.399 32.5728C135.53 32.209 135.679 31.8384 135.74 31.457C135.809 31.0486 135.792 30.6085 135.794 30.1948C135.792 25.409 135.796 20.6233 135.794 15.8375C135.792 15.2131 135.734 14.6016 135.491 14.0204L135.389 13.7551ZM146.357 13.7572C147.483 13.7551 148.607 13.7558 149.732 13.7558C149.66 13.9603 149.583 14.1642 149.519 14.3707C149.334 14.9499 149.342 15.6215 149.32 16.227C149.319 20.6239 149.321 25.0222 149.319 29.4185C149.315 30.0645 149.322 30.7192 149.392 31.3618C149.439 31.7911 149.587 32.1698 149.728 32.5735C148.607 32.5748 147.487 32.5741 146.366 32.5735C146.501 32.2414 146.648 31.9106 146.713 31.5556C146.814 31.0243 146.799 30.4438 146.8 29.9038C146.799 25.2146 146.8 20.5247 146.799 15.8355C146.797 15.2179 146.75 14.6171 146.483 14.0501C146.442 13.9516 146.4 13.8544 146.357 13.7572ZM152.652 13.7565C155.879 13.7538 159.107 13.7578 162.335 13.7538C162.486 14.5233 162.643 15.2914 162.771 16.063C162.364 15.9064 161.964 15.7221 161.549 15.5837C160.928 15.3853 160.312 15.3697 159.665 15.367C158.326 15.3691 156.986 15.367 155.647 15.3677C155.649 17.2422 155.643 19.116 155.65 20.9905C157.77 20.9891 159.889 20.9871 162.009 20.9905C161.83 21.4967 161.652 22.005 161.479 22.5133C159.536 22.5207 157.593 22.5146 155.65 22.5166C155.643 25.3246 155.649 28.1313 155.647 30.9386L160.248 30.9393C160.83 30.9393 161.41 30.8941 161.978 30.7591C162.547 30.6322 163.063 30.4128 163.603 30.2029C163.406 30.994 163.204 31.7844 163.004 32.5748C159.557 32.5728 156.11 32.5748 152.663 32.5741C152.891 31.9889 153.078 31.4091 153.072 30.7719C153.078 25.8937 153.07 21.0087 153.074 16.1291C153.072 15.4069 153.052 14.7217 152.767 14.0454C152.729 13.9489 152.691 13.8526 152.652 13.7565Z" fill="#7A7B7B"></path><path fill-rule="evenodd" clip-rule="evenodd" d="M106.915 13.7558C105.943 13.7558 104.973 13.7551 104.001 13.7565L104.076 13.9529C104.193 14.258 104.309 14.5604 104.351 14.8878C104.406 15.3366 104.398 15.8044 104.391 16.2634C104.389 16.4139 104.386 16.5638 104.386 16.7109C104.386 21.0762 104.386 25.4414 104.385 29.8059C104.383 29.9391 104.381 30.0723 104.381 30.2055C104.378 30.5586 104.376 30.9116 104.347 31.2626C104.307 31.6797 104.183 32.0544 104.053 32.4438L104.01 32.5728C105.271 32.5748 106.532 32.5741 107.793 32.5741H110.313C111.809 32.5741 113.306 32.1732 114.579 31.376C115.98 30.5019 117.073 29.2025 117.798 27.7195C118.541 26.1953 118.918 24.5183 118.898 22.8224C118.906 21.1686 118.486 19.496 117.661 18.0616C116.934 16.7927 115.889 15.7356 114.628 14.9951C113.191 14.1486 111.487 13.7436 109.829 13.7544C108.857 13.7558 107.886 13.7558 106.915 13.7558ZM108.396 15.3636C107.872 15.3636 107.349 15.363 106.825 15.3684V30.9352C107.697 30.9399 108.569 30.9393 109.441 30.9386H110.313C111.702 30.9237 113.065 30.485 114.111 29.5474C115.313 28.4674 115.948 26.9196 116.182 25.3442C116.399 23.8119 116.277 22.2196 115.851 20.7339C115.397 19.1882 114.555 17.7437 113.293 16.7265C112.219 15.8557 110.828 15.3393 109.442 15.363C109.093 15.3643 108.744 15.3643 108.396 15.3636ZM83.2902 21.7869C82.2069 19.0012 81.1228 16.2148 80.0401 13.4277H79.9895C79.8201 13.4291 79.6493 13.4298 79.4799 13.4385C77.4943 18.2403 75.5466 23.0577 73.6371 27.8903C73.523 28.1691 73.417 28.4532 73.3104 28.7374C73.0761 29.3618 72.8419 29.9889 72.5274 30.5599C72.1399 31.2801 71.6688 31.9464 71.1477 32.5741H73.6371L74.1366 31.2835C74.8669 29.3935 75.5979 27.5035 76.3269 25.6122H78.9763C80.0361 25.6122 81.0958 25.6122 82.1549 25.6101L82.9494 27.7114C83.5623 29.3328 84.1752 30.9534 84.7921 32.5734H85.295C86.3001 32.5748 87.3058 32.5755 88.3109 32.5721C87.7304 31.9457 87.1992 31.2977 86.7854 30.5457C86.5194 30.0746 86.3163 29.5778 86.1239 29.0736C85.1802 26.6442 84.2359 24.2163 83.2909 21.7876L83.2902 21.7869ZM81.0951 22.821C80.493 21.226 79.8916 19.631 79.2753 18.042L79.2193 18.177L79.164 18.3127C78.6067 19.7271 78.0552 21.1437 77.5095 22.5625L76.8933 24.1555C78.0698 24.1569 79.2463 24.1569 80.4235 24.1562H81.6L81.0951 22.821ZM126.358 13.4257C126.212 13.4271 126.065 13.4277 125.921 13.446C125.817 13.6424 125.736 13.8523 125.656 14.0609C125.617 14.1621 125.579 14.262 125.538 14.3606C124.534 16.8567 123.53 19.3536 122.525 21.8497L119.51 29.3422C119.222 30.0442 118.94 30.7145 118.5 31.3362C118.311 31.6014 118.113 31.8627 117.917 32.1232C117.804 32.2731 117.692 32.4222 117.581 32.5728C118.414 32.5748 119.247 32.5741 120.079 32.5728C120.98 30.2548 121.872 27.9335 122.764 25.6108H128.585C129.188 27.1903 129.786 28.7732 130.382 30.3561L131.22 32.5748C131.81 32.5734 132.401 32.5734 132.99 32.5734C133.58 32.5734 134.17 32.5741 134.761 32.5728C134.615 32.3919 134.46 32.2123 134.304 32.0314C133.886 31.5468 133.461 31.0533 133.185 30.5039C132.93 30.0186 132.733 29.5231 132.536 29.0128L129.508 21.2199L126.479 13.425L126.358 13.4257ZM127.326 22.2756C126.796 20.8607 126.257 19.4495 125.708 18.042L125.141 19.5C124.537 21.0505 123.934 22.6023 123.334 24.1542C124.902 24.1575 126.469 24.158 128.037 24.1555C127.798 23.5291 127.562 22.9027 127.326 22.2756Z" fill="#7A7B7B"></path><path d="M115.659 38.9184C115.845 38.9198 116.03 38.9198 116.217 38.9184V41.9944H115.659V38.9184ZM121.748 39.0096L121.754 39.6387C121.448 39.5151 121.044 39.318 120.72 39.4773C120.546 39.561 120.525 39.8486 120.685 39.9505C120.996 40.149 121.418 40.209 121.687 40.5C122.058 40.8996 121.969 41.6407 121.472 41.8986C121.005 42.1416 120.5 42.012 120.033 41.8527L120.03 41.2087C120.379 41.3808 120.72 41.5752 121.125 41.4571C121.182 41.4337 121.233 41.3963 121.273 41.3483C121.312 41.3004 121.339 41.2433 121.351 41.1823C121.363 41.1213 121.36 41.0582 121.341 40.9989C121.323 40.9395 121.29 40.8856 121.245 40.8422C120.954 40.6113 120.449 40.5607 120.199 40.2435C119.891 39.8553 120.011 39.2485 120.447 39.0129C120.865 38.778 121.314 38.9063 121.748 39.0096Z" fill="#7A7B7B"></path><path fill-rule="evenodd" clip-rule="evenodd" d="M98.2503 38.9172C98.1072 38.9206 97.9647 38.9239 97.8264 38.9206V41.9945C98.0086 41.9932 98.1909 41.9932 98.3731 41.9945V41.7178C98.3731 41.4417 98.3731 41.1656 98.3718 40.8895L98.525 40.8841C98.853 40.874 99.2209 40.8632 99.4828 40.6654C100.055 40.2591 99.9337 39.196 99.2398 38.9833C98.9266 38.9017 98.5851 38.9091 98.2503 38.9172ZM98.4399 39.4592C98.4222 39.4604 98.4044 39.4615 98.3866 39.4626C98.3694 39.6788 98.3644 39.8958 98.3718 40.1126L98.3738 40.3462C98.4325 40.3414 98.4953 40.3408 98.5594 40.3394C98.7369 40.3367 98.9259 40.3327 99.0711 40.2544C99.3262 40.1099 99.3438 39.6739 99.0832 39.5274C98.8983 39.4315 98.6492 39.4457 98.4399 39.4592ZM109.969 38.9185C109.828 38.9212 109.689 38.9239 109.554 38.9199V41.9952H110.101V41.6881C110.101 41.3809 110.101 41.0738 110.102 40.7667C110.157 40.7782 110.22 40.7829 110.286 40.7869C110.452 40.7991 110.632 40.8119 110.722 40.9395C110.871 41.1211 110.996 41.3202 111.12 41.52C111.22 41.6813 111.321 41.842 111.434 41.9925L111.677 41.9938L112.161 41.9959C111.955 41.7704 111.787 41.5193 111.619 41.2682C111.457 41.0252 111.295 40.7829 111.099 40.5642C111.123 40.5439 111.147 40.5237 111.173 40.5041C111.268 40.4272 111.368 40.3475 111.442 40.253C111.688 39.8075 111.519 39.1676 111.008 39.0016C110.684 38.903 110.321 38.9104 109.968 38.9179L109.969 38.9185ZM110.302 39.4538C110.232 39.4525 110.163 39.4511 110.103 39.445V40.2631C110.164 40.2577 110.234 40.2571 110.306 40.2571C110.529 40.2571 110.779 40.2557 110.917 40.1032C110.996 39.9526 111.003 39.7346 110.9 39.5949C110.757 39.4612 110.516 39.4579 110.302 39.4538ZM105.345 40.8301C105.052 40.1555 104.746 39.4869 104.426 38.8247C104.304 38.9377 104.208 39.0759 104.146 39.2297C103.855 39.8973 103.558 40.5608 103.26 41.2243L102.915 41.9938H103.532L103.585 41.8798C103.652 41.7313 103.721 41.5834 103.791 41.4363C103.927 41.4397 104.064 41.437 104.201 41.4349C104.453 41.4302 104.706 41.4262 104.954 41.4532C105.051 41.5402 105.112 41.684 105.17 41.8204C105.195 41.8811 105.221 41.9419 105.249 41.9932L105.556 41.9938H105.865C105.688 41.6084 105.516 41.2196 105.345 40.8301ZM104.669 40.6573L104.385 39.979C104.248 40.2976 104.115 40.6175 103.983 40.9375C104.25 40.9388 104.518 40.9388 104.786 40.9388L104.669 40.6573Z" fill="#7A7B7B"></path></g><defs><clipPath id="clip0_22484_19015"><rect width="108" height="35.1" fill="white" transform="translate(56 7.44995)"></rect></clipPath></defs></svg> 