<?xml version="1.0" encoding="UTF-8"?> <svg xmlns="http://www.w3.org/2000/svg" width="220" height="50" viewBox="0 0 220 50" fill="none"><g clip-path="url(#clip0_22484_19030)"><path d="M94.9628 12.0154C96.1454 12.0178 97.3292 12.0154 98.5124 12.0166C99.1826 12.0142 99.8768 12.0286 100.517 12.2512C101.068 12.442 101.517 12.7984 101.901 13.2298C104.104 15.7828 106.31 18.3406 108.514 20.8918L115.782 12.5494C115.992 12.3196 116.244 11.9782 116.58 11.9584C117.039 11.926 117.504 11.9542 117.964 11.9452C116.349 13.7434 114.727 15.5362 113.107 17.3302C111.926 18.6376 110.752 19.9492 109.621 21.3004C109.355 21.6274 109.102 21.9724 108.987 22.384C108.877 22.7644 108.926 23.134 108.924 23.5234C108.925 25.4896 108.924 27.4558 108.924 29.4214L105.624 29.422C105.348 29.4178 105.09 29.3878 104.872 29.2006C104.602 28.9636 104.541 28.6264 104.541 28.282C104.542 26.3398 104.541 24.3964 104.542 22.453C104.563 22.2406 104.41 22.1446 104.292 21.9928C101.823 19.1674 99.3086 16.3828 96.7928 13.5988C96.2258 12.9928 95.7212 12.3928 94.9628 12.0148V12.0154ZM143.142 12.0322C143.442 11.9986 143.749 12.0208 144.052 12.0166C150.508 12.016 156.965 12.0178 163.421 12.016C163.416 12.2884 163.445 12.574 163.395 12.8428C163.312 13.0864 163.087 13.1224 162.859 13.1284C160.574 13.1296 158.275 13.129 155.989 13.1284C155.732 13.1332 155.466 13.1092 155.212 13.1488C155.089 13.1632 155.077 13.3318 155.076 13.429C155.074 18.7594 155.077 24.091 155.075 29.4214C153.962 29.4202 152.848 29.4232 151.736 29.4214C151.404 29.422 151.087 29.3368 150.886 29.0536C150.657 28.7164 150.693 28.3396 150.691 27.9532C150.694 23.2498 150.69 18.5464 150.693 13.8436C150.692 13.6565 150.68 13.4695 150.657 13.2838C150.176 13.2532 149.687 13.267 149.203 13.2646C147.074 13.2628 144.944 13.2676 142.815 13.2628C142.821 12.9436 142.788 12.613 142.84 12.298C142.869 12.1408 142.989 12.052 143.142 12.0322Z" fill="#7A7B7B"></path><path fill-rule="evenodd" clip-rule="evenodd" d="M132.687 11.7939C131.316 11.6359 129.933 11.6301 128.561 11.7765C126.185 12.0309 123.779 12.7773 121.813 14.1681C120.487 15.1005 119.354 16.3521 118.705 17.8521C118.027 19.4078 117.915 21.1515 118.388 22.7811C118.776 24.1029 119.531 25.2711 120.507 26.2311C122.097 27.8061 124.244 28.8219 126.397 29.3511C129.116 30.0075 132.031 30.0015 134.752 29.3571C137.061 28.7979 139.337 27.6933 140.959 25.9155C141.912 24.8721 142.603 23.6031 142.88 22.2087C143.179 20.7327 143.013 19.1727 142.392 17.8005C141.7 16.2465 140.5 14.9907 139.105 14.0475C137.207 12.7755 134.942 12.0573 132.687 11.7939ZM134.142 13.1187C132.513 12.5427 130.672 12.4779 128.97 12.6747C127.672 12.8427 126.402 13.2303 125.338 14.0169C124.366 14.7249 123.67 15.7329 123.262 16.8591C122.828 18.0273 122.7 19.3287 122.687 20.5683C122.676 22.2303 122.884 23.9385 123.668 25.4283C124.264 26.5728 125.216 27.4926 126.38 28.0491C127.843 28.7571 129.532 28.9173 131.135 28.8603C132.711 28.8015 134.347 28.4799 135.675 27.5847C136.726 26.8947 137.5 25.8627 137.948 24.6903C138.522 23.2011 138.617 21.5769 138.554 19.9965C138.475 18.4221 138.133 16.8285 137.25 15.5001C136.512 14.3787 135.4 13.5633 134.142 13.1187ZM62.651 12.0171C60.6284 12.0183 58.6058 12.0201 56.5838 12.0099C56.6762 12.0621 56.7674 12.1173 56.8574 12.1731C57.0326 12.3459 57.1676 12.5475 57.2084 12.7953C57.2378 13.0011 57.2354 13.2129 57.2324 13.4229C57.2318 15.5949 57.2314 17.7669 57.2312 19.9389V28.2819C57.2372 28.6029 57.272 28.9077 57.506 29.1477C57.716 29.3685 57.9938 29.4177 58.286 29.4207C58.8404 29.4219 59.3948 29.4219 59.9492 29.4213H61.6136C61.6118 28.4055 61.6118 27.3891 61.6124 26.3733C61.6124 25.1217 61.6124 23.8713 61.6094 22.6203L61.6106 22.5585C61.6124 22.4475 61.6148 22.3431 61.6568 22.2357C61.8428 22.2141 62.0318 22.2159 62.2208 22.2177C64.0692 22.2188 65.9176 22.2193 67.766 22.2195H67.7732C69.5246 22.2033 71.3012 22.0563 72.95 21.4173C74.0618 20.9799 75.086 20.3181 75.7496 19.2993C76.2422 18.5385 76.487 17.6181 76.4654 16.7133C76.3976 15.6801 75.848 14.7357 75.0848 14.0583C74.1884 13.2591 73.0286 12.7803 71.879 12.4857C70.6232 12.1689 69.311 12.0453 68.0186 12.0207C66.2294 12.0135 64.4402 12.0153 62.651 12.0171ZM64.136 12.9219H61.4672V19.9137L61.4666 20.1885C61.4642 20.5263 61.4624 20.8605 61.5056 21.1995C61.8212 21.2451 62.1308 21.2421 62.4452 21.2391L62.7026 21.2379H65.0324L67.3628 21.2385C68.3618 21.2265 69.371 21.0423 70.214 20.4759C70.8284 20.0691 71.2844 19.4571 71.5346 18.7659C71.7932 18.0639 71.84 17.2905 71.8022 16.5507C71.7602 15.8547 71.5898 15.1827 71.1758 14.6127C70.6766 13.9083 69.8954 13.4907 69.0848 13.2555C68.1386 12.9855 67.1168 12.9123 66.1364 12.9213H64.1354L64.136 12.9219ZM84.404 11.9451C83.75 11.9457 83.096 11.9469 82.442 11.9409C82.9172 12.2943 83.231 12.8205 83.5394 13.3359C83.6228 13.4757 83.7056 13.6143 83.7914 13.7493C81.4622 17.5053 79.1168 21.2511 76.7714 24.9975C75.8474 26.4717 74.9246 27.9459 74.0024 29.4213C74.1104 29.4189 74.2196 29.4213 74.3294 29.4231C74.5652 29.4273 74.8028 29.4315 75.0326 29.3955C75.3854 29.3151 75.668 28.9695 75.86 28.6815C76.2308 28.1013 76.6004 27.5205 76.97 26.9397C77.6198 25.9197 78.269 24.8997 78.9242 23.8833C79.0604 23.6715 79.2182 23.4591 79.4474 23.3427C79.6118 23.2629 79.8194 23.2575 80.003 23.2527H80.0342C81.701 23.2539 83.3678 23.2539 85.0346 23.2533L89.2022 23.2539L89.3564 23.5137C90.2552 25.0263 91.1522 26.5377 92.0186 28.0683L92.0564 28.1331C92.2946 28.5381 92.567 29.0019 92.9444 29.2773C93.2876 29.5251 93.6938 29.5509 94.1018 29.5611C94.7978 29.5659 95.4938 29.5647 96.1898 29.5641C96.9368 29.5635 97.6844 29.5623 98.4314 29.5677C98.2007 29.3998 97.9902 29.2059 97.8038 28.9899C97.2098 28.2927 96.7382 27.5535 96.2606 26.8029C96.077 26.5149 95.8928 26.2263 95.7002 25.9371C94.4024 23.9163 93.1688 21.8505 91.9466 19.7823C90.8846 17.9679 89.8226 16.1523 88.8104 14.3079C88.7518 14.1993 88.694 14.0903 88.637 13.9809C88.3376 13.4109 88.0088 12.7833 87.5348 12.3843C87.1166 12.0279 86.6162 11.9583 86.0846 11.9463C85.5242 11.9433 84.9644 11.9445 84.404 11.9451ZM84.8726 15.7353C84.7244 15.4785 84.5756 15.2211 84.4172 14.9709C84.2312 15.1221 84.1184 15.3147 84.0014 15.5145L83.9336 15.6297L82.403 18.1245C81.5654 19.4877 80.7278 20.8509 79.8968 22.2183H82.3808C84.4496 22.2189 86.5196 22.2195 88.5884 22.2177C87.4137 20.156 86.2343 18.097 85.0502 16.0407C84.9902 15.9393 84.932 15.8373 84.8726 15.7353Z" fill="#7A7B7B"></path><path d="M117.988 34.6456C118.392 34.5916 118.904 34.6216 119.23 34.8964C119.452 35.0812 119.499 35.3248 119.56 35.5924L119.086 35.5936C119.046 35.4802 119.016 35.3566 118.955 35.2516C118.856 35.1304 118.698 35.086 118.55 35.062C118.302 35.026 118.015 35.0224 117.79 35.152C117.504 35.3164 117.459 35.782 117.759 35.9602C118.22 36.2344 118.858 36.2362 119.298 36.5422C119.665 36.7906 119.665 37.3324 119.499 37.6972C119.29 38.125 118.832 38.2852 118.384 38.2996C117.965 38.3098 117.415 38.2504 117.116 37.9192C116.918 37.705 116.926 37.4638 116.912 37.1902C117.095 37.1872 117.278 37.1866 117.461 37.1866C117.52 37.4224 117.531 37.6306 117.769 37.7578C118.083 37.9126 118.497 37.921 118.831 37.8268C119.228 37.7128 119.331 37.0978 118.984 36.8716C118.516 36.5578 117.792 36.574 117.332 36.2218C117.027 35.9908 117.035 35.5696 117.143 35.2384C117.277 34.8748 117.625 34.6972 117.988 34.6456ZM112.765 34.7002C112.923 34.687 113.083 34.6906 113.242 34.6894C113.244 35.8462 113.242 37.003 113.244 38.1586L112.758 38.1604C112.764 37.0084 112.746 35.8522 112.765 34.7002Z" fill="#7A7B7B"></path><path fill-rule="evenodd" clip-rule="evenodd" d="M94.2332 34.6911C94.04 34.6917 93.8468 34.6929 93.6536 34.6911C93.6524 35.5593 93.6524 36.4263 93.6524 37.2933V38.1597H93.9284L94.2044 38.1591V36.7755C94.3292 36.7695 94.4636 36.7725 94.6022 36.7755C94.9874 36.7833 95.402 36.7917 95.7104 36.6171C96.2792 36.3183 96.3458 35.4363 95.8994 35.0049C95.6804 34.7877 95.3858 34.6941 95.0828 34.6929C94.7996 34.6887 94.5164 34.6899 94.2332 34.6911ZM94.3892 35.1112C94.3292 35.1136 94.2698 35.1159 94.2116 35.1171C94.1978 35.3775 94.2002 35.638 94.2032 35.899C94.2044 36.052 94.2062 36.2049 94.2044 36.3579C94.3094 36.3543 94.4186 36.3556 94.529 36.3574C94.8146 36.361 95.1098 36.3651 95.3708 36.2805C95.8514 36.1143 95.8148 35.2924 95.3186 35.1646C95.0228 35.0872 94.6994 35.0998 94.3892 35.1112ZM106.936 34.6917C106.732 34.6929 106.527 34.6935 106.323 34.6917C106.325 35.8479 106.325 37.0041 106.324 38.1603H106.564L106.804 38.1597V36.6369H107.158C107.335 36.6369 107.512 36.6369 107.689 36.6351C107.828 36.9003 107.965 37.1667 108.102 37.4331C108.238 37.6989 108.375 37.9653 108.514 38.2299L108.993 38.2293C108.701 37.6797 108.408 37.1314 108.112 36.5824L108.198 36.5415C108.422 36.4371 108.634 36.3376 108.758 36.1024C108.939 35.7316 108.873 35.2203 108.543 34.9515C108.319 34.7553 108.043 34.6995 107.754 34.6935C107.481 34.6902 107.208 34.6896 106.936 34.6917ZM107.399 35.107C107.203 35.1023 107.008 35.1063 106.812 35.119C106.798 35.3512 106.8 35.5845 106.803 35.8179C106.804 35.9517 106.805 36.0849 106.803 36.2175C106.932 36.2139 107.062 36.2164 107.194 36.2194C107.472 36.2254 107.752 36.2308 108.017 36.1744C108.413 36.0712 108.483 35.5426 108.227 35.2696C108.06 35.1214 107.847 35.1153 107.637 35.1093L107.589 35.1081L107.399 35.107ZM102.381 37.4379C101.983 36.5199 101.584 35.6007 101.182 34.6833C101.135 34.6907 101.087 34.6929 101.04 34.69C100.926 34.687 100.821 34.6839 100.786 34.8249C100.569 35.3229 100.353 35.8227 100.136 36.3225C99.8696 36.9363 99.6038 37.5502 99.3362 38.161L99.8198 38.1597C99.9086 37.9461 99.9962 37.7319 100.084 37.5177L100.161 37.3293C100.503 37.3281 100.845 37.3281 101.187 37.3287H101.871C101.927 37.4667 101.985 37.6054 102.042 37.744C102.099 37.882 102.156 38.0199 102.211 38.1585C102.372 38.1597 102.534 38.1597 102.694 38.1597L102.381 37.4379ZM101.048 35.3211L101.036 35.3499L100.782 35.944C100.644 36.2668 100.506 36.589 100.367 36.9112H100.562C100.953 36.9124 101.343 36.9129 101.734 36.9099C101.627 36.6645 101.521 36.4179 101.416 36.1719C101.294 35.8881 101.172 35.6043 101.048 35.3211Z" fill="#7A7B7B"></path></g><defs><clipPath id="clip0_22484_19030"><rect width="108" height="27" fill="white" transform="translate(56 11.5)"></rect></clipPath></defs></svg> 