<?xml version="1.0" encoding="UTF-8"?> <svg xmlns="http://www.w3.org/2000/svg" width="48" height="48" viewBox="0 0 48 48" fill="none"><path fill-rule="evenodd" clip-rule="evenodd" d="M32.4285 21.75C31.8217 21.7441 31.2234 21.6065 30.675 21.3465C30.544 21.2791 30.4355 21.1748 30.363 21.0465L29.25 19.05L28.137 21.045C28.0645 21.1733 27.9561 21.2776 27.825 21.345C27.2642 21.6275 26.6399 21.7602 26.0127 21.7303C25.3854 21.7003 24.7766 21.5087 24.2453 21.174C23.7589 20.7796 23.385 20.264 23.1612 19.6792C22.9374 19.0943 22.8715 18.4609 22.9703 17.8425C22.9951 17.6958 23.063 17.5598 23.1653 17.4517L24.7253 15.8018L22.4753 15.375C22.3304 15.3475 22.1968 15.2778 22.0913 15.1747C21.6474 14.7347 21.3268 14.1859 21.1616 13.583C20.9964 12.9802 20.9924 12.3446 21.15 11.7397C21.3837 11.1578 21.7648 10.6466 22.2558 10.2565C22.7468 9.86634 23.3308 9.61064 23.9505 9.5145C24.0955 9.49368 24.2434 9.51503 24.3765 9.576L26.5358 10.575L26.256 8.34C26.2382 8.19298 26.2643 8.04396 26.331 7.91175C26.6094 7.36685 27.0251 6.90395 27.537 6.5687C28.0488 6.23345 28.6393 6.03744 29.25 6C29.8621 6.03671 30.454 6.2327 30.9671 6.56855C31.4801 6.9044 31.8965 7.36845 32.175 7.91475C32.2418 8.04696 32.2679 8.19598 32.25 8.343L31.9703 10.578L34.125 9.576C34.2583 9.51556 34.4061 9.49423 34.551 9.5145C35.1704 9.61074 35.7541 9.86641 36.2449 10.2564C36.7356 10.6464 37.1164 11.1573 37.35 11.739C37.5077 12.3448 37.5032 12.9815 37.3371 13.5851C37.171 14.1886 36.849 14.7379 36.4035 15.1777C36.298 15.2808 36.1644 15.3505 36.0195 15.378L33.7695 15.8048L35.3295 17.4548C35.4319 17.5628 35.4997 17.6988 35.5245 17.8455C35.6233 18.464 35.5575 19.0976 35.3337 19.6825C35.1099 20.2675 34.736 20.7832 34.2495 21.1777C33.7188 21.5571 33.0809 21.7576 32.4285 21.75ZM31.5473 20.088C31.8412 20.2122 32.1603 20.2652 32.4786 20.2426C32.7969 20.2201 33.1053 20.1226 33.3788 19.9583C33.6184 19.7566 33.8059 19.5003 33.9255 19.2108C34.0451 18.9214 34.0932 18.6074 34.0658 18.2955L31.7408 15.8407C31.6482 15.743 31.5837 15.6221 31.5539 15.4907C31.5242 15.3594 31.5304 15.2225 31.5718 15.0944C31.6132 14.9663 31.6884 14.8517 31.7894 14.7626C31.8904 14.6735 32.0135 14.6133 32.1458 14.5883L35.4878 13.953C35.6956 13.7187 35.8439 13.4377 35.9201 13.1339C35.9964 12.8301 35.9983 12.5124 35.9258 12.2078C35.8014 11.9164 35.6094 11.6589 35.3656 11.4566C35.1218 11.2543 34.8333 11.113 34.524 11.0445L31.3673 12.5085C31.2458 12.5649 31.1114 12.5877 30.9781 12.5745C30.8448 12.5614 30.7175 12.5128 30.6093 12.4338C30.5012 12.3548 30.4161 12.2483 30.3631 12.1253C30.31 12.0023 30.2908 11.8674 30.3075 11.7345L30.723 8.415C30.5677 8.15653 30.3532 7.93874 30.097 7.77963C29.8409 7.62052 29.5506 7.52467 29.25 7.5C28.9494 7.52468 28.659 7.62052 28.4027 7.77963C28.1465 7.93873 27.9317 8.15652 27.7763 8.415L28.1918 11.7345C28.2085 11.8674 28.1893 12.0023 28.1363 12.1253C28.0832 12.2483 27.9982 12.3548 27.89 12.4338C27.7818 12.5128 27.6545 12.5614 27.5212 12.5745C27.3879 12.5877 27.2535 12.5649 27.132 12.5085L23.9753 11.0445C23.6662 11.1131 23.378 11.2544 23.1345 11.4567C22.8909 11.6591 22.6992 11.9165 22.575 12.2078C22.5025 12.5124 22.5045 12.8301 22.5807 13.1339C22.6569 13.4377 22.8052 13.7187 23.013 13.953L26.355 14.5883C26.4873 14.6133 26.6104 14.6735 26.7114 14.7626C26.8124 14.8517 26.8876 14.9663 26.929 15.0944C26.9704 15.2225 26.9766 15.3594 26.9469 15.4907C26.9171 15.6221 26.8526 15.743 26.76 15.8407L24.435 18.297C24.4063 18.6088 24.4539 18.9229 24.5737 19.2122C24.6935 19.5015 24.882 19.7573 25.1228 19.9575C25.3964 20.1223 25.7051 20.22 26.0236 20.2426C26.3422 20.2653 26.6616 20.2123 26.9558 20.088L28.5975 17.142C28.6684 17.0329 28.7654 16.9432 28.8798 16.8811C28.9941 16.8191 29.1222 16.7865 29.2523 16.7865C29.3824 16.7865 29.5104 16.8191 29.6248 16.8811C29.7391 16.9432 29.8362 17.0329 29.907 17.142L31.5473 20.088ZM29.25 15C29.6642 15 30 14.6642 30 14.25C30 13.8358 29.6642 13.5 29.25 13.5C28.8358 13.5 28.5 13.8358 28.5 14.25C28.5 14.6642 28.8358 15 29.25 15ZM6.21967 17.7803C6.36032 17.921 6.55109 18 6.75 18C6.94891 18 7.13968 17.921 7.28033 17.7803C7.42098 17.6397 7.5 17.4489 7.5 17.25V16.5C7.5 16.3011 7.42098 16.1103 7.28033 15.9697C7.13968 15.829 6.94891 15.75 6.75 15.75C6.55109 15.75 6.36032 15.829 6.21967 15.9697C6.07902 16.1103 6 16.3011 6 16.5V17.25C6 17.4489 6.07902 17.6397 6.21967 17.7803ZM4.5 19.5H5.25C5.44891 19.5 5.63968 19.421 5.78033 19.2803C5.92098 19.1397 6 18.9489 6 18.75C6 18.5511 5.92098 18.3603 5.78033 18.2197C5.63968 18.079 5.44891 18 5.25 18H4.5C4.30109 18 4.11032 18.079 3.96967 18.2197C3.82902 18.3603 3.75 18.5511 3.75 18.75C3.75 18.9489 3.82902 19.1397 3.96967 19.2803C4.11032 19.421 4.30109 19.5 4.5 19.5ZM6.21967 21.5303C6.36032 21.671 6.55109 21.75 6.75 21.75C6.94891 21.75 7.13968 21.671 7.28033 21.5303C7.42098 21.3897 7.5 21.1989 7.5 21V20.25C7.5 20.0511 7.42098 19.8603 7.28033 19.7197C7.13968 19.579 6.94891 19.5 6.75 19.5C6.55109 19.5 6.36032 19.579 6.21967 19.7197C6.07902 19.8603 6 20.0511 6 20.25V21C6 21.1989 6.07902 21.3897 6.21967 21.5303ZM8.25 19.5H9C9.19891 19.5 9.38968 19.421 9.53033 19.2803C9.67098 19.1397 9.75 18.9489 9.75 18.75C9.75 18.5511 9.67098 18.3603 9.53033 18.2197C9.38968 18.079 9.19891 18 9 18H8.25C8.05109 18 7.86032 18.079 7.71967 18.2197C7.57902 18.3603 7.5 18.5511 7.5 18.75C7.5 18.9489 7.57902 19.1397 7.71967 19.2803C7.86032 19.421 8.05109 19.5 8.25 19.5ZM39.9697 16.2803C40.1103 16.421 40.3011 16.5 40.5 16.5C40.6989 16.5 40.8897 16.421 41.0303 16.2803C41.171 16.1397 41.25 15.9489 41.25 15.75V15C41.25 14.8011 41.171 14.6103 41.0303 14.4697C40.8897 14.329 40.6989 14.25 40.5 14.25C40.3011 14.25 40.1103 14.329 39.9697 14.4697C39.829 14.6103 39.75 14.8011 39.75 15V15.75C39.75 15.9489 39.829 16.1397 39.9697 16.2803ZM38.25 18H39C39.1989 18 39.3897 17.921 39.5303 17.7803C39.671 17.6397 39.75 17.4489 39.75 17.25C39.75 17.0511 39.671 16.8603 39.5303 16.7197C39.3897 16.579 39.1989 16.5 39 16.5H38.25C38.0511 16.5 37.8603 16.579 37.7197 16.7197C37.579 16.8603 37.5 17.0511 37.5 17.25C37.5 17.4489 37.579 17.6397 37.7197 17.7803C37.8603 17.921 38.0511 18 38.25 18ZM39.9697 20.0303C40.1103 20.171 40.3011 20.25 40.5 20.25C40.6989 20.25 40.8897 20.171 41.0303 20.0303C41.171 19.8897 41.25 19.6989 41.25 19.5V18.75C41.25 18.5511 41.171 18.3603 41.0303 18.2197C40.8897 18.079 40.6989 18 40.5 18C40.3011 18 40.1103 18.079 39.9697 18.2197C39.829 18.3603 39.75 18.5511 39.75 18.75V19.5C39.75 19.6989 39.829 19.8897 39.9697 20.0303ZM42 18H42.75C42.9489 18 43.1397 17.921 43.2803 17.7803C43.421 17.6397 43.5 17.4489 43.5 17.25C43.5 17.0511 43.421 16.8603 43.2803 16.7197C43.1397 16.579 42.9489 16.5 42.75 16.5H42C41.8011 16.5 41.6103 16.579 41.4697 16.7197C41.329 16.8603 41.25 17.0511 41.25 17.25C41.25 17.4489 41.329 17.6397 41.4697 17.7803C41.6103 17.921 41.8011 18 42 18ZM13.7197 13.2803C13.8603 13.421 14.0511 13.5 14.25 13.5C14.4489 13.5 14.6397 13.421 14.7803 13.2803C14.921 13.1397 15 12.9489 15 12.75V12C15 11.8011 14.921 11.6103 14.7803 11.4697C14.6397 11.329 14.4489 11.25 14.25 11.25C14.0511 11.25 13.8603 11.329 13.7197 11.4697C13.579 11.6103 13.5 11.8011 13.5 12V12.75C13.5 12.9489 13.579 13.1397 13.7197 13.2803ZM12 15H12.75C12.9489 15 13.1397 14.921 13.2803 14.7803C13.421 14.6397 13.5 14.4489 13.5 14.25C13.5 14.0511 13.421 13.8603 13.2803 13.7197C13.1397 13.579 12.9489 13.5 12.75 13.5H12C11.8011 13.5 11.6103 13.579 11.4697 13.7197C11.329 13.8603 11.25 14.0511 11.25 14.25C11.25 14.4489 11.329 14.6397 11.4697 14.7803C11.6103 14.921 11.8011 15 12 15ZM13.7197 17.0303C13.8603 17.171 14.0511 17.25 14.25 17.25C14.4489 17.25 14.6397 17.171 14.7803 17.0303C14.921 16.8897 15 16.6989 15 16.5V15.75C15 15.5511 14.921 15.3603 14.7803 15.2197C14.6397 15.079 14.4489 15 14.25 15C14.0511 15 13.8603 15.079 13.7197 15.2197C13.579 15.3603 13.5 15.5511 13.5 15.75V16.5C13.5 16.6989 13.579 16.8897 13.7197 17.0303ZM15.75 15H16.5C16.6989 15 16.8897 14.921 17.0303 14.7803C17.171 14.6397 17.25 14.4489 17.25 14.25C17.25 14.0511 17.171 13.8603 17.0303 13.7197C16.8897 13.579 16.6989 13.5 16.5 13.5H15.75C15.5511 13.5 15.3603 13.579 15.2197 13.7197C15.079 13.8603 15 14.0511 15 14.25C15 14.4489 15.079 14.6397 15.2197 14.7803C15.3603 14.921 15.5511 15 15.75 15ZM14.8736 35.6667C14.956 35.5433 15 35.3983 15 35.25C15 35.0511 14.921 34.8603 14.7803 34.7197C14.6397 34.579 14.4489 34.5 14.25 34.5C14.1017 34.5 13.9567 34.544 13.8333 34.6264C13.71 34.7088 13.6139 34.8259 13.5571 34.963C13.5003 35.1 13.4855 35.2508 13.5144 35.3963C13.5434 35.5418 13.6148 35.6754 13.7197 35.7803C13.8246 35.8852 13.9582 35.9566 14.1037 35.9856C14.2492 36.0145 14.4 35.9997 14.537 35.9429C14.6741 35.8861 14.7912 35.79 14.8736 35.6667ZM28.0833 37.6264C28.2067 37.544 28.3517 37.5 28.5 37.5C28.6989 37.5 28.8897 37.579 29.0303 37.7197C29.171 37.8603 29.25 38.0511 29.25 38.25C29.25 38.3983 29.206 38.5433 29.1236 38.6667C29.0412 38.79 28.9241 38.8861 28.787 38.9429C28.65 38.9997 28.4992 39.0145 28.3537 38.9856C28.2082 38.9566 28.0746 38.8852 27.9697 38.7803C27.8648 38.6754 27.7934 38.5418 27.7644 38.3963C27.7355 38.2508 27.7503 38.1 27.8071 37.963C27.8639 37.8259 27.96 37.7088 28.0833 37.6264ZM19.0833 37.6264C19.2067 37.544 19.3517 37.5 19.5 37.5C19.6989 37.5 19.8897 37.579 20.0303 37.7197C20.171 37.8603 20.25 38.0511 20.25 38.25C20.25 38.3983 20.206 38.5433 20.1236 38.6667C20.0412 38.79 19.9241 38.8861 19.787 38.9429C19.65 38.9997 19.4992 39.0145 19.3537 38.9856C19.2082 38.9566 19.0746 38.8852 18.9697 38.7803C18.8648 38.6754 18.7934 38.5418 18.7644 38.3963C18.7355 38.2508 18.7503 38.1 18.8071 37.963C18.8639 37.8259 18.96 37.7088 19.0833 37.6264ZM3.33332 34.6264C3.45666 34.544 3.60166 34.5 3.75 34.5C3.94891 34.5 4.13968 34.579 4.28033 34.7197C4.42098 34.8603 4.5 35.0511 4.5 35.25C4.5 35.3983 4.45601 35.5433 4.3736 35.6667C4.29119 35.79 4.17406 35.8861 4.03701 35.9429C3.89997 35.9997 3.74917 36.0145 3.60368 35.9856C3.4582 35.9566 3.32456 35.8852 3.21967 35.7803C3.11478 35.6754 3.04335 35.5418 3.01441 35.3963C2.98547 35.2508 3.00032 35.1 3.05709 34.963C3.11386 34.8259 3.20999 34.7088 3.33332 34.6264ZM8.58332 37.6264C8.70666 37.544 8.85166 37.5 9 37.5C9.19891 37.5 9.38968 37.579 9.53033 37.7197C9.67098 37.8603 9.75 38.0511 9.75 38.25C9.75 38.3983 9.70601 38.5433 9.6236 38.6667C9.54119 38.79 9.42406 38.8861 9.28701 38.9429C9.14997 38.9997 8.99917 39.0145 8.85368 38.9856C8.7082 38.9566 8.57456 38.8852 8.46967 38.7803C8.36478 38.6754 8.29335 38.5418 8.26441 38.3963C8.23547 38.2508 8.25033 38.1 8.30709 37.963C8.36386 37.8259 8.45999 37.7088 8.58332 37.6264ZM33.3333 34.6264C33.4567 34.544 33.6017 34.5 33.75 34.5C33.9489 34.5 34.1397 34.579 34.2803 34.7197C34.421 34.8603 34.5 35.0511 34.5 35.25C34.5 35.3983 34.456 35.5433 34.3736 35.6667C34.2912 35.79 34.1741 35.8861 34.037 35.9429C33.9 35.9997 33.7492 36.0145 33.6037 35.9856C33.4582 35.9566 33.3246 35.8852 33.2197 35.7803C33.1148 35.6754 33.0434 35.5418 33.0144 35.3963C32.9855 35.2508 33.0003 35.1 33.0571 34.963C33.1139 34.8259 33.21 34.7088 33.3333 34.6264ZM23.5833 34.6264C23.7067 34.544 23.8517 34.5 24 34.5C24.1989 34.5 24.3897 34.579 24.5303 34.7197C24.671 34.8603 24.75 35.0511 24.75 35.25C24.75 35.3983 24.706 35.5433 24.6236 35.6667C24.5412 35.79 24.4241 35.8861 24.287 35.9429C24.15 35.9997 23.9992 36.0145 23.8537 35.9856C23.7082 35.9566 23.5746 35.8852 23.4697 35.7803C23.3648 35.6754 23.2934 35.5418 23.2644 35.3963C23.2355 35.2508 23.2503 35.1 23.3071 34.963C23.3639 34.8259 23.46 34.7088 23.5833 34.6264ZM43.8333 34.6264C43.9567 34.544 44.1017 34.5 44.25 34.5C44.4489 34.5 44.6397 34.579 44.7803 34.7197C44.921 34.8603 45 35.0511 45 35.25C45 35.3983 44.956 35.5433 44.8736 35.6667C44.7912 35.79 44.6741 35.8861 44.537 35.9429C44.4 35.9997 44.2492 36.0145 44.1037 35.9856C43.9582 35.9566 43.8246 35.8852 43.7197 35.7803C43.6148 35.6754 43.5434 35.5418 43.5144 35.3963C43.4855 35.2508 43.5003 35.1 43.5571 34.963C43.6139 34.8259 43.71 34.7088 43.8333 34.6264ZM38.5833 37.6264C38.7067 37.544 38.8517 37.5 39 37.5C39.1989 37.5 39.3897 37.579 39.5303 37.7197C39.671 37.8603 39.75 38.0511 39.75 38.25C39.75 38.3983 39.706 38.5433 39.6236 38.6667C39.5412 38.79 39.4241 38.8861 39.287 38.9429C39.15 38.9997 38.9992 39.0145 38.8537 38.9856C38.7082 38.9566 38.5746 38.8852 38.4697 38.7803C38.3648 38.6754 38.2934 38.5418 38.2644 38.3963C38.2355 38.2508 38.2503 38.1 38.3071 37.963C38.3639 37.8259 38.46 37.7088 38.5833 37.6264ZM45.75 42H2.25C1.65326 42 1.08097 41.7629 0.65901 41.341C0.237053 40.919 0 40.3467 0 39.75V30V27.75C0 27.1533 0.237053 26.581 0.65901 26.159C1.08097 25.7371 1.65326 25.5 2.25 25.5H45.75C46.3467 25.5 46.919 25.7371 47.341 26.159C47.7629 26.581 48 27.1533 48 27.75V30V39.75C48 40.3467 47.7629 40.919 47.341 41.341C46.919 41.7629 46.3467 42 45.75 42ZM46.5 30.7643V39.75C46.5 39.9489 46.421 40.1397 46.2803 40.2803C46.1397 40.421 45.9489 40.5 45.75 40.5H2.25C2.05109 40.5 1.86032 40.421 1.71967 40.2803C1.57902 40.1397 1.5 39.9489 1.5 39.75V30.7645C2.48054 30.8267 3.44493 31.0579 4.35 31.4497C5.6587 32.0105 7.07263 32.2834 8.496 32.25C9.91988 32.2836 11.3343 32.0107 12.6435 31.4497C13.7786 30.9585 15.007 30.7197 16.2435 30.75C17.4818 30.7191 18.712 30.9579 19.8488 31.4497C21.1575 32.0102 22.5714 32.2831 23.9948 32.25C25.4189 32.2835 26.8336 32.0106 28.143 31.4497C29.2781 30.9583 30.5065 30.7196 31.743 30.75C32.9815 30.7192 34.2119 30.958 35.349 31.4497C36.6583 32.0102 38.0727 32.2831 39.4965 32.25C40.9203 32.2832 42.3347 32.0103 43.644 31.4497C44.5511 31.0575 45.5175 30.8262 46.5 30.7643ZM46.5 29.2608C45.3318 29.3218 44.1815 29.5883 43.1025 30.0502C41.9654 30.542 40.735 30.7808 39.4965 30.75C38.258 30.7808 37.0276 30.542 35.8905 30.0502C34.5812 29.4897 33.1668 29.2168 31.743 29.25C30.3189 29.2165 28.9042 29.4894 27.5947 30.0502C26.4597 30.5417 25.2313 30.7804 23.9948 30.75C22.757 30.7809 21.5273 30.5421 20.391 30.0502C19.0817 29.4898 17.6673 29.2169 16.2435 29.25C14.8189 29.2161 13.4036 29.489 12.0938 30.0502C10.9587 30.5417 9.73028 30.7804 8.49375 30.75C7.25722 30.7804 6.02886 30.5416 4.89375 30.0502C3.81605 29.5884 2.66696 29.3219 1.5 29.2608V27.75C1.5 27.5511 1.57902 27.3603 1.71967 27.2197C1.86032 27.079 2.05109 27 2.25 27H45.75C45.9489 27 46.1397 27.079 46.2803 27.2197C46.421 27.3603 46.5 27.5511 46.5 27.75V29.2608Z" fill="#333333"></path></svg> 