<?xml version="1.0" encoding="UTF-8"?> <svg xmlns="http://www.w3.org/2000/svg" width="220" height="50" viewBox="0 0 220 50" fill="none"><g clip-path="url(#clip0_22484_19043)"><path d="M83 19.863C85.1835 19.4098 86.7941 18.5247 87.8036 17.5151C88.9564 16.36 89.6162 14.6508 89.6162 12.796C89.6162 10.9412 88.9353 9.2907 87.8036 8.1567C86.3386 6.67288 84.0119 5.80888 81.1241 5.80888H77.8277V8.26001H80.9198C84.7327 8.26001 86.9373 10.0115 86.9373 12.897C86.9373 18.9567 77.8277 17.8039 77.8277 17.8039L92.0485 34.7435H95.5327L83 19.863ZM121.173 29.3435H124.038L113.299 5.62105H110.805L100.069 29.3435H102.787L106.868 20.2128H117.093L121.173 29.3435ZM107.962 17.8016L112.024 8.73427L116.041 17.8016H107.962ZM142.956 18.8111V24.9953C141.329 26.3148 138.855 27.3431 136.155 27.3431C130.447 27.3431 126.839 23.1804 126.839 17.5527V17.4917C126.839 12.2372 130.572 7.82566 135.784 7.82566C139.122 7.82566 141.123 8.93853 142.956 10.5257L144.668 8.50653C142.297 6.52731 139.846 5.39331 135.887 5.39331C128.82 5.39331 124.078 11.122 124.078 17.5762V17.6372C124.078 24.3755 128.653 29.7567 136.051 29.7567C139.541 29.7538 142.908 28.4697 145.513 26.1481V16.2567L142.956 18.8111ZM65.7482 27.2633C61.2357 27.2633 58.6577 24.2346 58.6577 19.6376V5.80888H56V20.2104C56 25.8382 59.463 29.8976 65.4195 29.8976C68.2838 29.8976 70.3264 28.8481 71.8502 27.322V24.3144C70.4485 26.1504 68.2627 27.2633 65.7482 27.2633ZM57.08 40.4769V42.4138H60.3576V43.0736H56.3404V37.3848H60.273V38.0657H57.0823V39.8171H59.8434V40.4769H57.08ZM68.4294 41.3338H66.2647L65.6261 43.0853H64.8231L66.9878 37.3965H67.7697L69.8522 43.0853H69.0469L68.4294 41.3338ZM68.204 40.6952L67.3776 38.3239L66.5136 40.6952H68.204ZM78.8443 37.3848V41.0333C78.8443 41.2611 78.8443 41.5076 78.7622 41.7752C78.5978 42.4561 77.9592 43.2379 76.6397 43.2379C76.2265 43.2379 75.4236 43.1769 74.8883 42.4772C74.5173 42.003 74.5173 41.5686 74.5173 40.93V37.4083H75.2803V40.8267C75.2803 41.3432 75.2803 41.7964 75.5668 42.1673C75.8955 42.5805 76.412 42.6204 76.6397 42.6204C77.2971 42.6204 77.8371 42.2917 78.0015 41.6719C78.0625 41.4254 78.0625 41.1977 78.0813 40.8267V37.4059H78.8443V37.3848ZM92.4805 38.0445V43.0736H91.7175V38.0445H90.0059V37.3871H94.1897V38.0445H92.4805ZM102.933 40.4769H99.841V43.0736H99.0779V37.3848H99.841V39.8171H102.931V37.3848H103.694V43.0736H102.931L102.933 40.4769ZM110.155 40.4769V42.4138H113.433V43.0736H109.413V37.3848H113.35V38.0657H110.155V39.8171H112.916V40.4769H110.155ZM119.518 40.6624V43.0736H118.776V37.3848H120.899C121.683 37.3848 122.157 37.3848 122.613 37.737C123.023 38.0445 123.209 38.5188 123.209 39.0541C123.209 40.3947 122.136 40.5802 121.871 40.6224L123.455 43.0947H122.549L121.002 40.6835H119.518V40.6624ZM119.518 40.0237H121.023C121.27 40.0237 121.497 40.0237 121.725 39.9627C122.242 39.8383 122.425 39.4462 122.425 39.0353C122.43 38.8854 122.404 38.7361 122.347 38.5973C122.29 38.4584 122.205 38.3332 122.096 38.23C121.786 37.9835 121.436 37.9835 120.983 37.9835H119.518V40.0237ZM134.016 37.3848V43.0736H133.274L133.377 38.3122L131.562 43.0736H130.985L129.212 38.3756L129.294 43.0736H128.553V37.3848H129.522L131.274 42.064L133.046 37.3848H134.016ZM142.377 41.3338H140.212L139.573 43.0853H138.77L140.935 37.3965H141.717L143.799 43.0853H142.994L142.377 41.3338ZM142.151 40.6952L141.325 38.3239L140.461 40.6952H142.151ZM149.338 42.4138H152.099V43.0736H148.575V37.3848H149.338V42.4138ZM157.745 40.4769V42.4138H161.042V43.0736H157.003V37.3848H160.938V38.0657H157.745V39.8171H160.528V40.4769H157.745ZM149.181 5.80653V29.3435H161.133L162.514 26.9323H151.838V18.689H158.227L159.61 16.2567H151.838V8.21775H159.938L161.319 5.80653H149.181ZM96.8592 5.72435H94.1803V29.3435H96.8569L96.8592 5.72435ZM76.1749 5.80653H73.5171V29.367H76.1749V5.80653Z" fill="#7A7B7B"></path></g><defs><clipPath id="clip0_22484_19043"><rect width="108" height="39.913" fill="white" transform="translate(56 5.04346)"></rect></clipPath></defs></svg> 