<?xml version="1.0" encoding="UTF-8"?> <svg xmlns="http://www.w3.org/2000/svg" width="220" height="50" viewBox="0 0 220 50" fill="none"><path d="M65.5984 41.2023C65.5168 41.2822 65.4191 41.3439 65.3119 41.3832C65.2035 41.4247 65.0877 41.4429 64.9719 41.4367H64.1267V38.9911H64.9719C65.2026 38.9814 65.4272 39.0639 65.5984 39.2182C65.7035 39.3531 65.7796 39.5083 65.822 39.6739C65.8644 39.8396 65.8722 40.0123 65.8449 40.1811C65.872 40.3561 65.8642 40.5347 65.8219 40.7066C65.7796 40.8786 65.7036 41.0404 65.5984 41.1829V41.2023ZM65.3446 39.512C65.2939 39.4554 65.2302 39.4121 65.1589 39.3857C65.0896 39.3559 65.0144 39.3421 64.9391 39.3457H64.4922V41.1088H64.9451C65.0203 41.1146 65.0958 41.1026 65.1654 41.0737C65.2351 41.0447 65.2969 40.9998 65.3459 40.9424C65.4782 40.8016 65.4782 40.5478 65.4782 40.2066C65.4782 39.8666 65.4782 39.6602 65.3446 39.512ZM66.3901 41.4367V38.9911H67.9371V39.3189H66.7654V40.0269H67.7708V40.3547H66.7654V41.0833H67.9432V41.4099L66.3901 41.4367ZM69.2206 41.4367H68.9353L68.1424 38.9911H68.5224L69.0749 40.7482L69.6335 38.9911H70.0209L69.2206 41.4367ZM70.3536 41.4367V38.9911H71.8981V39.3189H70.7203V40.0269H71.7257V40.3547H70.7179V41.0833H71.8969V41.4099L70.3536 41.4367ZM72.4057 41.4367V38.9911H72.77V41.0821H73.9296V41.4099L72.4045 41.4367H72.4057ZM75.6879 41.2023C75.6039 41.2889 75.5014 41.3553 75.388 41.3966C75.2785 41.4424 75.1607 41.4651 75.0419 41.4634C74.9252 41.4652 74.8093 41.4424 74.7019 41.3966C74.5926 41.3524 74.4934 41.2863 74.4105 41.2023C74.1761 40.9558 74.1834 40.6887 74.1834 40.2272C74.1834 39.7658 74.1834 39.4926 74.4093 39.2582C74.4934 39.1737 74.5927 39.1057 74.7019 39.0579C74.8133 39.0176 74.9308 38.9971 75.0492 38.9972C75.1677 38.9959 75.2853 39.0183 75.3949 39.0632C75.5046 39.108 75.6042 39.1743 75.6879 39.2582C75.9211 39.4926 75.915 39.7597 75.915 40.2212C75.915 40.6826 75.915 40.9619 75.6879 41.1962V41.2023ZM75.4086 39.4719C75.312 39.3787 75.1829 39.3266 75.0486 39.3266C74.9143 39.3266 74.7852 39.3787 74.6886 39.4719C74.5696 39.6055 74.5429 39.7391 74.5429 40.2272C74.5429 40.7154 74.5429 40.8489 74.6886 40.9752C74.735 41.0242 74.7909 41.0631 74.8529 41.0896C74.915 41.1162 74.9818 41.1297 75.0492 41.1294C75.1165 41.1295 75.183 41.1159 75.2448 41.0894C75.3066 41.0629 75.3624 41.024 75.4086 40.9752C75.5216 40.8489 75.5422 40.7154 75.5422 40.2272C75.5422 39.7391 75.5216 39.6055 75.4086 39.4719ZM77.3734 40.4883H76.8269V41.4354H76.4602V38.9911H77.3734C77.4698 38.9909 77.5653 39.0098 77.6543 39.0467C77.7434 39.0836 77.8243 39.1378 77.8923 39.206C77.9604 39.2743 78.0143 39.3554 78.0509 39.4446C78.0875 39.5338 78.1061 39.6293 78.1056 39.7257C78.1056 39.9203 78.0286 40.1069 77.8913 40.2448C77.7541 40.3827 77.5679 40.4606 77.3734 40.4616V40.4883ZM77.3734 39.3457H76.8403V40.1544H77.3734C77.4283 40.1603 77.4838 40.1542 77.5361 40.1364C77.5884 40.1187 77.6362 40.0897 77.6761 40.0515C77.716 40.0133 77.7471 39.9669 77.7671 39.9154C77.7872 39.864 77.7958 39.8088 77.7923 39.7537C77.7955 39.6971 77.7863 39.6406 77.7654 39.588C77.7444 39.5354 77.7122 39.488 77.6711 39.4491C77.6299 39.4102 77.5807 39.3808 77.527 39.363C77.4732 39.3451 77.4163 39.3392 77.36 39.3457H77.3734ZM78.6119 41.4367V38.9911H80.1504V39.3189H78.9787V40.0269H79.9768V40.3547H78.9787V41.0833H80.1565V41.4099L78.6119 41.4367ZM82.1285 41.2023C82.0446 41.2823 81.9449 41.3439 81.8359 41.3832C81.7295 41.4243 81.6158 41.4425 81.5019 41.4367H80.6641V38.9911H81.5092C81.7399 38.9814 81.9646 39.0639 82.1346 39.2182C82.2372 39.3543 82.3113 39.5098 82.3526 39.6752C82.3939 39.8406 82.4015 40.0127 82.375 40.1811C82.4022 40.3561 82.3944 40.5347 82.3521 40.7067C82.3098 40.8786 82.2338 41.0405 82.1285 41.1829V41.2023ZM81.882 39.512C81.8301 39.4545 81.7663 39.4089 81.695 39.3784C81.6206 39.3509 81.541 39.3397 81.4619 39.3457H81.0296V41.1088H81.4619C81.5387 41.1254 81.6182 41.1254 81.695 41.1088C81.7676 41.0808 81.8319 41.0348 81.882 40.9752C82.0002 40.7497 82.0443 40.4926 82.0083 40.2406C82.0487 39.9889 81.9993 39.7309 81.8686 39.512H81.882ZM85.7046 41.4367H85.3852L84.8922 39.7391L84.3992 41.4367H84.0859L83.4606 39.0178H83.8467L84.2729 40.7542L84.7586 39.0251H85.0525L85.5321 40.7554L85.9571 39.0251H86.3445L85.7046 41.4367ZM86.6906 41.4367V38.9911H87.084V41.4099L86.6906 41.4367ZM88.5084 39.3457V41.4367H88.1429V39.3457H87.4762V39.0251H89.1677V39.3457H88.5084ZM90.9394 41.4367V40.3802H89.9473V41.4367H89.5806V38.9911H89.9473V40.0196H90.926V38.9911H91.2927V41.4099L90.9406 41.4367H90.9394ZM94.2228 41.2023C94.1418 41.2809 94.0457 41.3422 93.9403 41.3825C93.8349 41.4228 93.7223 41.4412 93.6096 41.4367H92.745V38.9911H93.5974C93.8234 38.9832 94.0433 39.0648 94.2094 39.2182C94.3159 39.3523 94.3929 39.5074 94.4354 39.6733C94.4779 39.8393 94.4849 40.0123 94.4559 40.1811C94.483 40.3561 94.4751 40.5347 94.4328 40.7066C94.3905 40.8785 94.3146 41.0404 94.2094 41.1829L94.2228 41.2023ZM93.9763 39.512C93.9259 39.4552 93.8631 39.4106 93.7928 39.3818C93.7225 39.353 93.6465 39.3406 93.5707 39.3457H93.0777V41.1088H93.5306C93.6064 41.1137 93.6824 41.1012 93.7526 41.0724C93.8229 41.0436 93.8857 40.9991 93.9362 40.9424C94.0637 40.8016 94.0637 40.5478 94.0637 40.2066C94.0637 39.8666 94.0892 39.6602 93.9629 39.512H93.9763ZM95.0218 41.4367V38.9911H96.5676V39.3189H95.3897V40.0269H96.4073V40.3547H95.4019V41.0833H96.5676V41.4099L95.0218 41.4367ZM98.3987 41.4367L97.8924 40.4142H97.4394V41.4367H97.0739V38.9911H98.0065C98.1536 38.9725 98.3027 39.0038 98.43 39.08C98.5572 39.1562 98.6552 39.2728 98.7084 39.4112C98.7436 39.5023 98.7581 39.6019 98.7521 39.699C98.7543 39.7718 98.7428 39.8443 98.7181 39.9127C98.698 39.982 98.6668 40.0477 98.6258 40.107C98.5345 40.2199 98.4121 40.3035 98.2736 40.3474L98.8322 41.4099L98.3987 41.4367ZM97.9798 39.3457H97.4334V40.107H97.9798C98.0318 40.1128 98.0844 40.1073 98.1341 40.091C98.1837 40.0747 98.2294 40.0479 98.2678 40.0124C98.3062 39.977 98.3366 39.9337 98.3569 39.8855C98.3772 39.8373 98.3869 39.7853 98.3854 39.733C98.3877 39.6787 98.3782 39.6246 98.3575 39.5743C98.3368 39.5241 98.3055 39.4789 98.2656 39.442C98.2258 39.405 98.1784 39.3772 98.1268 39.3603C98.0751 39.3435 98.0204 39.3381 97.9664 39.3444H97.9786L97.9798 39.3457ZM101.05 41.4367V39.8265L100.497 40.9959H100.23L99.664 39.8192V41.4367H99.2912V38.9911H99.664L100.371 40.4944L101.036 38.9911H101.403V41.4099L101.05 41.4367ZM103.448 41.4367L103.274 40.9485H102.328L102.156 41.4367H101.736L102.615 39.0178H102.907L103.794 41.4367H103.448ZM102.781 39.5667L102.401 40.6413H103.148L102.781 39.5667ZM104.78 39.3457V41.4367H104.4V39.3457H103.734V39.0251H105.426V39.3457H104.78ZM107.211 41.2035C107.17 41.246 107.122 41.2817 107.07 41.3092C107.023 41.3424 106.971 41.3693 106.917 41.3893C106.864 41.4143 106.808 41.4323 106.751 41.4427C106.693 41.4492 106.635 41.4492 106.578 41.4427C106.52 41.4496 106.462 41.4496 106.405 41.4427C106.347 41.4323 106.291 41.4143 106.238 41.3893L106.078 41.3092C106.029 41.2794 105.984 41.2435 105.944 41.2023C105.705 40.9558 105.705 40.6887 105.705 40.2272C105.705 39.7658 105.705 39.4926 105.944 39.2582L106.078 39.1453L106.238 39.0652L106.397 38.9923C106.455 38.9853 106.513 38.9853 106.571 38.9923C106.629 38.9857 106.687 38.9857 106.745 38.9923L106.911 39.0384L107.064 39.1186C107.115 39.1502 107.161 39.189 107.204 39.2315C107.443 39.4659 107.437 39.733 107.437 40.1944C107.437 40.6559 107.437 40.9352 107.204 41.1695L107.21 41.2023L107.211 41.2035ZM106.938 39.4719C106.887 39.4281 106.831 39.3921 106.77 39.3651C106.708 39.3392 106.641 39.3259 106.574 39.3259C106.507 39.3259 106.44 39.3392 106.378 39.3651C106.317 39.3922 106.261 39.4282 106.211 39.4719C106.099 39.6055 106.072 39.7391 106.072 40.2272C106.072 40.7154 106.072 40.8489 106.211 40.9752C106.282 41.0492 106.373 41.0998 106.473 41.1202C106.573 41.1406 106.676 41.1298 106.77 41.0894C106.831 41.0601 106.888 41.0216 106.938 40.9752C107.057 40.8489 107.077 40.7154 107.077 40.2272C107.077 39.7391 107.064 39.6055 106.938 39.4719ZM107.989 41.4367V38.9911H108.356V41.0821H109.528V41.4099L107.989 41.4367ZM111.267 41.2023C111.227 41.2435 111.182 41.2794 111.133 41.3092L110.973 41.3893C110.92 41.4143 110.864 41.4323 110.806 41.4427C110.749 41.4495 110.691 41.4495 110.634 41.4427C110.576 41.4493 110.518 41.4493 110.46 41.4427C110.403 41.4323 110.347 41.4143 110.294 41.3893L110.134 41.3092C110.085 41.2794 110.04 41.2435 110 41.2023C109.761 40.9558 109.761 40.6887 109.761 40.2272C109.761 39.7658 109.761 39.4926 110.001 39.2582L110.135 39.1453L110.294 39.0652L110.46 39.0178C110.518 39.0112 110.576 39.0112 110.634 39.0178C110.691 39.0109 110.749 39.0109 110.806 39.0178L110.973 39.0652L111.133 39.1453L111.267 39.2582C111.506 39.4926 111.5 39.7597 111.5 40.2212C111.5 40.6826 111.5 40.9619 111.267 41.1962V41.2023ZM110.993 39.4719C110.943 39.4282 110.887 39.3922 110.827 39.3651C110.702 39.3208 110.566 39.3208 110.441 39.3651C110.38 39.3921 110.323 39.4281 110.273 39.4719C110.154 39.6055 110.128 39.7391 110.128 40.2272C110.128 40.7154 110.128 40.8489 110.273 40.9752C110.323 41.0214 110.379 41.0602 110.441 41.0894C110.502 41.1158 110.567 41.1294 110.634 41.1294C110.7 41.1294 110.766 41.1158 110.827 41.0894C110.889 41.0616 110.945 41.023 110.993 40.9752C111.114 40.8489 111.133 40.7154 111.133 40.2272C111.133 39.7391 111.114 39.6055 110.993 39.4719ZM113.491 41.1829C113.451 41.2276 113.404 41.2657 113.351 41.2958C113.254 41.365 113.142 41.413 113.025 41.4367H112.664C112.605 41.4249 112.547 41.407 112.492 41.3832L112.331 41.3031L112.192 41.1889C111.953 40.9485 111.959 40.6887 111.959 40.2212C111.959 39.7524 111.959 39.4853 112.192 39.2522C112.275 39.1661 112.375 39.0979 112.486 39.0518C112.596 39.0112 112.714 38.9906 112.832 38.9911C113.045 38.9812 113.254 39.0531 113.416 39.1921C113.578 39.3312 113.681 39.5268 113.704 39.7391H113.338C113.317 39.6191 113.254 39.5106 113.159 39.4334C113.065 39.3563 112.946 39.3157 112.824 39.3189C112.759 39.3182 112.694 39.3308 112.633 39.3558C112.573 39.3809 112.518 39.4179 112.472 39.4647C112.351 39.5982 112.325 39.7318 112.325 40.2139C112.325 40.6947 112.325 40.8489 112.471 40.9692C112.515 41.0202 112.571 41.0601 112.634 41.0854C112.697 41.1107 112.764 41.1208 112.832 41.1149C112.904 41.1178 112.977 41.1044 113.044 41.0756C113.111 41.0468 113.17 41.0034 113.218 40.9485C113.263 40.8966 113.297 40.8363 113.319 40.7711C113.341 40.7059 113.349 40.637 113.344 40.5684V40.4349H112.832V40.1204H113.724V40.4883C113.736 40.6139 113.721 40.7405 113.681 40.8601C113.64 40.9796 113.576 41.0895 113.491 41.1829ZM114.256 41.4367V38.9911H114.623V41.4099L114.256 41.4367ZM115.888 41.4367C115.731 41.4469 115.573 41.4229 115.426 41.3663C115.279 41.3097 115.146 41.2218 115.036 41.1088L115.276 40.8684C115.357 40.9485 115.454 41.0103 115.561 41.0495C115.668 41.0887 115.782 41.1043 115.895 41.0954C116.207 41.0954 116.388 40.9692 116.388 40.7348C116.394 40.6877 116.39 40.6398 116.374 40.5948C116.359 40.5498 116.334 40.5088 116.301 40.4749C116.225 40.4133 116.131 40.3779 116.034 40.3742L115.748 40.3414C115.582 40.3219 115.424 40.2544 115.296 40.1471C115.236 40.0855 115.188 40.0129 115.156 39.9334C115.125 39.8422 115.112 39.7456 115.119 39.6494C115.126 39.5533 115.152 39.4595 115.196 39.3737C115.24 39.2879 115.301 39.2119 115.375 39.1501C115.449 39.0883 115.535 39.0421 115.627 39.0142C115.723 38.9859 115.823 38.978 115.922 38.9911C116.06 38.9826 116.199 39.0032 116.328 39.0515C116.458 39.0998 116.576 39.1748 116.675 39.2716L116.441 39.4987C116.372 39.4299 116.29 39.3769 116.199 39.3433C116.108 39.3098 116.011 39.2965 115.915 39.3044C115.622 39.3044 115.469 39.4719 115.469 39.6857C115.466 39.728 115.473 39.7704 115.489 39.8098C115.505 39.8491 115.53 39.8843 115.561 39.9127C115.64 39.9743 115.735 40.0115 115.835 40.0196L116.108 40.0609C116.271 40.0749 116.427 40.1375 116.555 40.2406C116.623 40.3025 116.676 40.3802 116.708 40.4677C116.74 40.5553 116.754 40.6488 116.748 40.7421C116.748 41.1889 116.394 41.45 115.888 41.45V41.4367ZM118.074 39.3189V41.4099H117.72V39.3189H117.054V38.9984H118.753V39.3189H118.074ZM119.798 41.4367C119.641 41.4469 119.483 41.4229 119.336 41.3663C119.189 41.3097 119.056 41.2218 118.946 41.1088L119.185 40.8684C119.266 40.9484 119.363 41.0102 119.47 41.0494C119.577 41.0885 119.691 41.1043 119.804 41.0954C120.125 41.0954 120.304 40.9692 120.304 40.7348C120.308 40.6873 120.302 40.6397 120.285 40.5949C120.269 40.5501 120.244 40.5092 120.211 40.4749C120.134 40.4145 120.041 40.3793 119.944 40.3742L119.665 40.3414C119.493 40.3248 119.331 40.2571 119.198 40.1471C119.137 40.0867 119.089 40.0135 119.059 39.9327C119.029 39.8519 119.017 39.7655 119.025 39.6796C119.025 39.5782 119.047 39.478 119.089 39.3856C119.131 39.2933 119.192 39.211 119.268 39.1441C119.345 39.0771 119.434 39.0272 119.531 38.9974C119.628 38.9677 119.73 38.9589 119.831 38.9717C119.969 38.963 120.107 38.9834 120.237 39.0315C120.367 39.0796 120.485 39.1544 120.584 39.2509L120.351 39.4792C120.281 39.4122 120.199 39.3603 120.108 39.3269C120.018 39.2935 119.921 39.2792 119.825 39.2849C119.538 39.2849 119.378 39.4525 119.378 39.6662C119.377 39.7092 119.385 39.7519 119.403 39.7912C119.42 39.8305 119.446 39.8654 119.479 39.8933C119.554 39.954 119.648 39.9917 119.745 40.0002L120.018 40.0402C120.181 40.0549 120.336 40.1179 120.464 40.2212C120.532 40.2848 120.587 40.3621 120.624 40.4482C120.656 40.5355 120.67 40.6286 120.664 40.7214C120.664 41.1695 120.304 41.4294 119.798 41.4294V41.4367ZM80.0509 31.0144C78.2525 32.7448 76.4602 33.8935 73.637 33.8935C69.268 33.8935 65.9773 30.3527 65.9773 25.6631C65.9773 20.9723 69.268 17.4849 73.637 17.4849C76.0012 17.4849 77.8664 18.3069 79.8772 20.217L80.0035 20.3506L81.8152 18.4004L81.6889 18.2729C80.6562 17.2039 79.4123 16.3614 78.0363 15.799C76.6603 15.2367 75.1824 14.9668 73.6965 15.0065C67.7562 15.0065 63.2743 19.6159 63.2743 25.6959C63.2743 31.7758 67.7161 36.3852 73.6103 36.3852C75.1608 36.4114 76.6987 36.1021 78.1185 35.4783C79.5382 34.8546 80.8063 33.9312 81.8359 32.7715L81.9694 32.644L80.2039 30.9076L80.0509 31.0144ZM89.4081 20.3251C85.2116 20.3251 82.0811 23.7652 82.0811 28.3418C82.0811 32.9184 85.3585 36.3585 89.7275 36.3585C90.9275 36.3927 92.1193 36.1516 93.2115 35.6536C94.3038 35.1555 95.2674 34.4139 96.0284 33.4855L96.1474 33.3592L94.4899 31.8693L94.3685 31.9968C93.7976 32.6509 93.0921 33.174 92.3003 33.5303C91.5085 33.8866 90.6492 34.0676 89.7809 34.0611C87.1168 34.0611 85.0792 32.1704 84.7259 29.3436H96.5469V29.1772C96.5469 28.9429 96.5809 28.7097 96.5809 28.4681C96.5809 23.6049 93.7031 20.3384 89.4215 20.3384L89.4081 20.3251ZM84.7125 27.3194C85.0586 24.5204 86.9565 22.5764 89.3754 22.5764C92.3649 22.5764 93.6897 24.9952 93.9496 27.3194H84.7125ZM106.397 23.1969V20.4465H106.218C104.991 20.4129 103.781 20.7333 102.733 21.3694C101.682 22.0058 100.837 22.9305 100.297 24.0335V20.6942H97.7066V36.0598H100.297V29.9058C100.297 25.8379 102.548 23.2248 106.038 23.2248L106.397 23.1969ZM112.098 20.4914H107.438V22.8229H111.954C114.658 22.8629 116.136 24.2399 116.136 26.7317V27.0122C114.698 26.615 113.212 26.4217 111.721 26.4378C107.598 26.4378 105.133 28.3212 105.133 31.4892C105.133 34.8285 108.124 36.3719 110.901 36.3719C111.885 36.4024 112.864 36.2166 113.768 35.8276C114.673 35.4387 115.481 34.8559 116.136 34.1206V36.0513H118.64V26.6977C118.64 22.6905 116.316 20.4854 112.093 20.4854L112.098 20.4914ZM111.339 34.2347C109.615 34.2347 107.757 33.3459 107.757 31.3945C107.757 29.5512 109.321 28.4487 111.953 28.4487C113.376 28.4474 114.793 28.6453 116.161 29.0364V30.3721C116.161 32.5845 114.084 34.2542 111.341 34.2542M142.358 22.6128C139.954 22.6128 138.056 24.5642 137.695 27.3631H146.953C146.701 25.0317 145.375 22.6128 142.358 22.6128Z" fill="#7A7B7B"></path><path d="M113.628 8.47852L127.835 41.8835H156.766V8.47852H113.628ZM127.702 36.197L118.83 15.3793H121.774L128.866 32.5894L135.966 15.3793H138.831L129.959 36.197H127.702ZM149.559 29.2149V29.3764H137.692C138.051 32.2093 140.062 34.0999 142.76 34.0999C143.628 34.1089 144.487 33.9289 145.278 33.5725C146.07 33.216 146.774 32.6916 147.342 32.0357L147.462 31.9082L149.113 33.3981L149 33.5256C148.238 34.4519 147.274 35.1921 146.182 35.6897C145.09 36.1874 143.899 36.4294 142.7 36.3974C138.338 36.3974 135.047 32.9573 135.047 28.3807C135.047 23.804 138.212 20.3639 142.373 20.3639C146.656 20.3639 149.534 23.6304 149.534 28.4948C149.557 28.734 149.565 28.9744 149.56 29.2161L149.559 29.2149Z" fill="#7A7B7B"></path></svg> 