<?xml version="1.0" encoding="UTF-8"?> <svg xmlns="http://www.w3.org/2000/svg" width="220" height="50" viewBox="0 0 220 50" fill="none"><g clip-path="url(#clip0_22484_19025)"><path d="M56.1237 16.0618C58.1176 16.3203 59.9513 16.7509 61.4711 18.148C63.3542 19.7172 64.1111 21.8588 64.3576 24.2403C61.6128 24.2463 58.868 24.2403 56.1237 24.2403C56.1237 21.514 56.1173 18.7877 56.1237 16.0618ZM73.7416 16C73.785 18.7508 73.754 21.5075 73.785 24.2583C71.0651 24.2278 68.3513 24.2398 65.631 24.2463C65.8465 21.52 66.9482 19.0152 69.3048 17.5014C70.671 16.5598 72.1603 16.3383 73.7416 16ZM80.319 19.6185C81.4451 19.6185 82.5777 19.6249 83.7039 19.6249C85.2422 22.462 86.75 25.3171 88.3497 28.1172C89.87 25.2677 91.4268 22.4311 92.996 19.6125H96.3376C96.3251 23.4709 96.3191 27.3294 96.3376 31.1818L93.0943 31.1449C93.1253 29.1511 93.1437 27.1572 93.1682 25.1634C92.1039 27.1817 91.0451 29.2065 89.919 31.1938L86.6577 31.1569C85.6174 29.1815 84.59 27.1877 83.4823 25.2432C83.4205 27.2246 83.4205 29.2 83.4514 31.1818C82.4051 31.1754 81.3593 31.1754 80.319 31.1754C80.3559 27.3234 80.3499 23.4649 80.319 19.6185ZM102.885 19.6125C103.95 19.6185 105.008 19.6185 106.073 19.6185C106.06 23.4649 106.073 27.3169 106.066 31.1634C105.008 31.1694 103.95 31.1694 102.885 31.1754C102.879 27.3234 102.885 23.4709 102.885 19.6125ZM112.16 19.6185C116.276 19.6185 120.387 19.6125 124.504 19.6185C124.424 20.56 124.498 21.5878 124.245 22.4985C121.858 24.5602 119.218 26.326 116.799 28.3632C119.433 28.3568 122.067 28.3448 124.701 28.3568V31.1814C120.442 31.1569 116.184 31.1569 111.926 31.1814C111.932 30.2214 111.932 29.2614 111.932 28.3014C114.461 26.3385 117.033 24.4309 119.513 22.4122C117.064 22.3877 114.615 22.4062 112.16 22.3937V19.6185ZM150.257 19.6125C151.304 19.7048 152.848 19.3665 153.759 19.8525C156.153 22.1846 158.393 24.6894 160.75 27.0649C160.756 24.5786 160.762 22.0988 160.743 19.6125C161.802 19.6185 162.866 19.6189 163.925 19.6189C163.919 23.4709 163.907 27.3234 163.937 31.1694C162.818 31.1694 161.703 31.1634 160.584 31.1574C158.214 28.702 155.827 26.2466 153.408 23.8342C153.439 26.2831 153.439 28.7325 153.439 31.1754C152.374 31.1694 151.316 31.1694 150.251 31.1634C150.257 27.3109 150.251 23.4585 150.257 19.6125Z" fill="#7A7B7B"></path><path fill-rule="evenodd" clip-rule="evenodd" d="M141.409 19.9941C139.193 19.0217 136.35 19.1878 134.012 19.5815C129.323 20.8124 128.547 27.6986 132.301 30.4064C134.615 31.8893 138.055 31.7357 140.621 31.108C145.341 29.7109 145.735 22.0803 141.409 19.9941ZM141.219 25.323C141.071 22.0553 137.649 21.8153 135.164 22.437C132.708 23.2863 132.382 26.8429 134.61 28.1352C137.059 29.3107 141.33 28.8432 141.219 25.323Z" fill="#7A7B7B"></path><path d="M56 25.7353C58.7508 25.7228 61.5015 25.7293 64.2523 25.7228C64.2523 28.4801 64.2583 31.2308 64.2463 33.9816C62.1108 33.5754 60.1538 33.1139 58.5971 31.4828C56.8922 29.9201 56.4186 27.9197 56 25.7353ZM65.7408 25.7173C68.4611 25.7357 71.1809 25.7233 73.9008 25.7233C73.5994 28.1971 72.824 30.425 70.8117 32.0062C69.3412 33.2801 67.6178 33.6064 65.7782 33.9756C65.7412 31.2248 65.7657 28.4681 65.7412 25.7173H65.7408Z" fill="#7A7B7B"></path></g><defs><clipPath id="clip0_22484_19025"><rect width="108" height="18" fill="white" transform="translate(56 16)"></rect></clipPath></defs></svg> 