<?xml version="1.0" encoding="UTF-8"?> <svg xmlns="http://www.w3.org/2000/svg" width="48" height="48" viewBox="0 0 48 48" fill="none"><path fill-rule="evenodd" clip-rule="evenodd" d="M24.5303 37.2803L26.7803 35.0303C26.9169 34.8888 26.9925 34.6994 26.9908 34.5027C26.989 34.3061 26.9102 34.118 26.7711 33.9789C26.6321 33.8399 26.4439 33.761 26.2473 33.7593C26.0507 33.7576 25.8612 33.8332 25.7197 33.9698L24.75 34.9396V32.9892C25.9167 32.928 27.0655 32.6615 28.143 32.1998C29.2782 31.7086 30.5065 31.4698 31.743 31.5001C32.419 31.4833 33.0927 31.5468 33.75 31.6879V34.9396L32.7803 33.9698C32.6388 33.8332 32.4493 33.7576 32.2527 33.7593C32.056 33.761 31.8679 33.8399 31.7289 33.9789C31.5898 34.118 31.511 34.3061 31.5092 34.5027C31.5075 34.6994 31.5831 34.8888 31.7197 35.0303L33.9697 37.2803C34.0394 37.3501 34.1222 37.4056 34.2133 37.4434C34.3044 37.4812 34.4021 37.5006 34.5007 37.5006C34.5994 37.5006 34.6971 37.4812 34.7882 37.4434C34.8793 37.4056 34.9621 37.3501 35.0317 37.2803L37.2817 35.0303C37.4222 34.8895 37.5009 34.6986 37.5006 34.4997C37.5003 34.3009 37.4211 34.1102 37.2803 33.9698C37.1396 33.8292 36.9489 33.7502 36.75 33.7502C36.5511 33.7502 36.3604 33.8292 36.2197 33.9698L35.25 34.9396V32.1577C35.2831 32.1715 35.3161 32.1856 35.349 32.1998C36.6583 32.7603 38.0727 33.0332 39.4965 33.0001C40.9203 33.0331 42.3347 32.7602 43.644 32.1998C44.5511 31.8075 45.5175 31.5763 46.5 31.5143V40.5001C46.5 40.699 46.421 40.8897 46.2803 41.0304C46.1397 41.171 45.9489 41.2501 45.75 41.2501H2.25C2.05109 41.2501 1.86032 41.171 1.71967 41.0304C1.57902 40.8897 1.5 40.699 1.5 40.5001V31.5146C2.48053 31.5768 3.44491 31.808 4.35 32.1998C5.65868 32.7606 7.07262 33.0335 8.496 33.0001C9.92013 33.0338 11.3349 32.7609 12.6442 32.1998C12.6794 32.1846 12.7147 32.1696 12.75 32.1549V34.9396L11.7802 33.9698C11.6388 33.8332 11.4493 33.7576 11.2527 33.7593C11.0561 33.761 10.8679 33.8399 10.7289 33.9789C10.5898 34.118 10.511 34.3061 10.5092 34.5027C10.5075 34.6994 10.5831 34.8888 10.7198 35.0303L12.9697 37.2803C13.0394 37.3501 13.1222 37.4056 13.2133 37.4434C13.3044 37.4812 13.4021 37.5006 13.5007 37.5006C13.5994 37.5006 13.6971 37.4812 13.7882 37.4434C13.8793 37.4056 13.9621 37.3501 14.0317 37.2803L16.2817 35.0303C16.4222 34.8895 16.5009 34.6986 16.5006 34.4997C16.5003 34.3009 16.4211 34.1102 16.2803 33.9698C16.1396 33.8292 15.9489 33.7502 15.75 33.7502C15.5511 33.7502 15.3604 33.8292 15.2197 33.9698L14.25 34.9396V31.6863C14.9033 31.5466 15.5725 31.4836 16.2443 31.5001C17.4823 31.4693 18.7122 31.7081 19.8488 32.1998C20.9288 32.6625 22.0805 32.9292 23.25 32.9895V34.9396L22.2787 33.9698C22.1373 33.8332 21.9478 33.7576 21.7512 33.7593C21.5546 33.761 21.3664 33.8399 21.2274 33.9789C21.0883 34.118 21.0095 34.3061 21.0077 34.5027C21.006 34.6994 21.0816 34.8888 21.2183 35.0303L23.4683 37.2803C23.5379 37.3501 23.6207 37.4056 23.7118 37.4434C23.8029 37.4812 23.9006 37.5006 23.9993 37.5006C24.0979 37.5006 24.1956 37.4812 24.2867 37.4434C24.3778 37.4056 24.4606 37.3501 24.5303 37.2803ZM24.75 31.4852V29.2501C24.75 29.0511 24.671 28.8604 24.5303 28.7197C24.3897 28.5791 24.1989 28.5001 24 28.5001C23.8011 28.5001 23.6103 28.5791 23.4697 28.7197C23.329 28.8604 23.25 29.0511 23.25 29.2501V31.4861C22.2661 31.4247 21.2984 31.1933 20.3903 30.8003C19.0815 30.2399 17.6676 29.967 16.2443 30.0001C15.5741 29.9841 14.906 30.036 14.25 30.1539V29.2501C14.25 29.0511 14.171 28.8604 14.0303 28.7197C13.8897 28.5791 13.6989 28.5001 13.5 28.5001C13.3011 28.5001 13.1103 28.5791 12.9697 28.7197C12.829 28.8604 12.75 29.0511 12.75 29.2501V30.5463C12.5287 30.623 12.3098 30.7078 12.0938 30.8003C10.9587 31.2917 9.73028 31.5305 8.49375 31.5001C7.25722 31.5304 6.02886 31.2917 4.89375 30.8003C3.81605 30.3385 2.66696 30.0719 1.5 30.0109V28.5001C1.5 28.3011 1.57902 28.1104 1.71967 27.9697C1.86032 27.8291 2.05109 27.7501 2.25 27.7501H45.75C45.9489 27.7501 46.1397 27.8291 46.2803 27.9697C46.421 28.1104 46.5 28.3011 46.5 28.5001V30.0109C45.3318 30.0719 44.1815 30.3385 43.1025 30.8003C41.9654 31.2921 40.735 31.5308 39.4965 31.5001C38.258 31.5308 37.0276 31.2921 35.8905 30.8003C35.6796 30.71 35.466 30.6272 35.25 30.552V29.2501C35.25 29.0511 35.171 28.8604 35.0303 28.7197C34.8897 28.5791 34.6989 28.5001 34.5 28.5001C34.3011 28.5001 34.1103 28.5791 33.9697 28.7197C33.829 28.8604 33.75 29.0511 33.75 29.2501V30.1571C33.0899 30.0374 32.4175 29.9844 31.743 30.0001C30.3189 29.9664 28.9042 30.2393 27.5947 30.8003C26.6913 31.1915 25.7287 31.4225 24.75 31.4852ZM18.6991 22.5509C20.1052 23.957 22.0115 24.7479 24 24.7501C25.9885 24.7479 27.8948 23.957 29.3009 22.5509C30.7069 21.1449 31.4978 19.2385 31.5 17.2501C31.5 13.3501 25.2682 6.29105 24.558 5.49905C24.4858 5.42383 24.3992 5.36397 24.3033 5.32308C24.2074 5.28219 24.1042 5.26111 24 5.26111C23.8958 5.26111 23.7926 5.28219 23.6967 5.32308C23.6008 5.36397 23.5142 5.42383 23.442 5.49905C22.7318 6.29105 16.5 13.3501 16.5 17.2501C16.5022 19.2385 17.2931 21.1449 18.6991 22.5509ZM18 17.2501C18 14.6836 21.9195 9.57155 24 7.1393C26.0805 9.57155 30 14.6836 30 17.2501C30 18.8414 29.3679 20.3675 28.2426 21.4927C27.1174 22.6179 25.5913 23.2501 24 23.2501C22.4087 23.2501 20.8826 22.6179 19.7574 21.4927C18.6321 20.3675 18 18.8414 18 17.2501ZM28.2803 16.7197C28.421 16.8604 28.5 17.0511 28.5 17.2501C28.4988 18.4432 28.0243 19.5871 27.1807 20.4307C26.337 21.2744 25.1931 21.7489 24 21.7501C23.8011 21.7501 23.6103 21.671 23.4697 21.5304C23.329 21.3897 23.25 21.199 23.25 21.0001C23.25 20.8011 23.329 20.6104 23.4697 20.4697C23.6103 20.3291 23.8011 20.2501 24 20.2501C24.7956 20.2501 25.5587 19.934 26.1213 19.3714C26.6839 18.8088 27 18.0457 27 17.2501C27 17.0511 27.079 16.8604 27.2197 16.7197C27.3603 16.5791 27.5511 16.5001 27.75 16.5001C27.9489 16.5001 28.1397 16.5791 28.2803 16.7197ZM4.53944 23.2106C5.52367 24.1948 6.8581 24.7485 8.25 24.7501C9.6419 24.7485 10.9763 24.1948 11.9606 23.2106C12.9448 22.2264 13.4984 20.892 13.5 19.5001C13.5 16.8053 9.28875 12.0346 8.808 11.4991C8.73583 11.4238 8.6492 11.364 8.55331 11.3231C8.45742 11.2822 8.35425 11.2611 8.25 11.2611C8.14575 11.2611 8.04258 11.2822 7.94669 11.3231C7.8508 11.364 7.76417 11.4238 7.692 11.4991C7.21125 12.0346 3 16.8053 3 19.5001C3.00159 20.892 3.55522 22.2264 4.53944 23.2106ZM4.5 19.5001C4.5 18.0706 6.612 15.0871 8.25 13.1438C9.888 15.0863 12 18.0683 12 19.5001C12 20.4946 11.6049 21.4484 10.9017 22.1517C10.1984 22.855 9.24456 23.2501 8.25 23.2501C7.25544 23.2501 6.30161 22.855 5.59835 22.1517C4.89509 21.4484 4.5 20.4946 4.5 19.5001ZM10.2803 18.9697C10.421 19.1104 10.5 19.3011 10.5 19.5001C10.5 20.0968 10.2629 20.6691 9.84099 21.091C9.41903 21.513 8.84674 21.7501 8.25 21.7501C8.05109 21.7501 7.86032 21.671 7.71967 21.5304C7.57902 21.3897 7.5 21.199 7.5 21.0001C7.5 20.8011 7.57902 20.6104 7.71967 20.4697C7.86032 20.3291 8.05109 20.2501 8.25 20.2501C8.44891 20.2501 8.63968 20.171 8.78033 20.0304C8.92098 19.8897 9 19.699 9 19.5001C9 19.3011 9.07902 19.1104 9.21967 18.9697C9.36032 18.8291 9.55109 18.7501 9.75 18.7501C9.94891 18.7501 10.1397 18.8291 10.2803 18.9697ZM36.0394 23.2106C37.0237 24.1948 38.3581 24.7485 39.75 24.7501C41.1419 24.7485 42.4763 24.1948 43.4606 23.2106C44.4448 22.2264 44.9984 20.892 45 19.5001C45 16.8053 40.7887 12.0346 40.308 11.4991C40.2358 11.4238 40.1492 11.364 40.0533 11.3231C39.9574 11.2822 39.8542 11.2611 39.75 11.2611C39.6458 11.2611 39.5426 11.2822 39.4467 11.3231C39.3508 11.364 39.2642 11.4238 39.192 11.4991C38.7113 12.0346 34.5 16.8053 34.5 19.5001C34.5016 20.892 35.0552 22.2264 36.0394 23.2106ZM36 19.5001C36 18.0706 38.112 15.0871 39.75 13.1438C41.388 15.0863 43.5 18.0683 43.5 19.5001C43.5 20.4946 43.1049 21.4484 42.4016 22.1517C41.6984 22.855 40.7446 23.2501 39.75 23.2501C38.7554 23.2501 37.8016 22.855 37.0984 22.1517C36.3951 21.4484 36 20.4946 36 19.5001ZM41.7803 18.9697C41.921 19.1104 42 19.3011 42 19.5001C42 20.0968 41.7629 20.6691 41.341 21.091C40.919 21.513 40.3467 21.7501 39.75 21.7501C39.5511 21.7501 39.3603 21.671 39.2197 21.5304C39.079 21.3897 39 21.199 39 21.0001C39 20.8011 39.079 20.6104 39.2197 20.4697C39.3603 20.3291 39.5511 20.2501 39.75 20.2501C39.9489 20.2501 40.1397 20.171 40.2803 20.0304C40.421 19.8897 40.5 19.699 40.5 19.5001C40.5 19.3011 40.579 19.1104 40.7197 18.9697C40.8603 18.8291 41.0511 18.7501 41.25 18.7501C41.4489 18.7501 41.6397 18.8291 41.7803 18.9697ZM2.25 42.7501H45.75C46.3467 42.7501 46.919 42.513 47.341 42.091C47.7629 41.6691 48 41.0968 48 40.5001V30.7501V28.5001C48 27.9033 47.7629 27.331 47.341 26.9091C46.919 26.4871 46.3467 26.2501 45.75 26.2501H2.25C1.65326 26.2501 1.08097 26.4871 0.65901 26.9091C0.237053 27.331 0 27.9033 0 28.5001V30.7501V40.5001C0 41.0968 0.237053 41.6691 0.65901 42.091C1.08097 42.513 1.65326 42.7501 2.25 42.7501ZM29.1236 39.4167C29.206 39.2934 29.25 39.1484 29.25 39.0001C29.25 38.8011 29.171 38.6104 29.0303 38.4697C28.8897 38.3291 28.6989 38.2501 28.5 38.2501C28.3517 38.2501 28.2067 38.294 28.0833 38.3764C27.96 38.4589 27.8639 38.576 27.8071 38.713C27.7503 38.8501 27.7355 39.0009 27.7644 39.1464C27.7934 39.2919 27.8648 39.4255 27.9697 39.5304C28.0746 39.6353 28.2082 39.7067 28.3537 39.7356C28.4992 39.7646 28.65 39.7497 28.787 39.693C28.9241 39.6362 29.0412 39.5401 29.1236 39.4167ZM19.0833 38.3764C19.2067 38.294 19.3517 38.2501 19.5 38.2501C19.6989 38.2501 19.8897 38.3291 20.0303 38.4697C20.171 38.6104 20.25 38.8011 20.25 39.0001C20.25 39.1484 20.206 39.2934 20.1236 39.4167C20.0412 39.5401 19.9241 39.6362 19.787 39.693C19.65 39.7497 19.4992 39.7646 19.3537 39.7356C19.2082 39.7067 19.0746 39.6353 18.9697 39.5304C18.8648 39.4255 18.7934 39.2919 18.7644 39.1464C18.7355 39.0009 18.7503 38.8501 18.8071 38.713C18.8639 38.576 18.96 38.4589 19.0833 38.3764ZM3.33332 35.3764C3.45666 35.294 3.60166 35.2501 3.75 35.2501C3.94891 35.2501 4.13968 35.3291 4.28033 35.4697C4.42098 35.6104 4.5 35.8011 4.5 36.0001C4.5 36.1484 4.45601 36.2934 4.3736 36.4167C4.29119 36.5401 4.17406 36.6362 4.03701 36.693C3.89997 36.7497 3.74917 36.7646 3.60368 36.7356C3.4582 36.7067 3.32456 36.6353 3.21967 36.5304C3.11478 36.4255 3.04335 36.2919 3.01441 36.1464C2.98547 36.0009 3.00032 35.8501 3.05709 35.713C3.11386 35.576 3.20999 35.4589 3.33332 35.3764ZM8.58332 38.3764C8.70666 38.294 8.85166 38.2501 9 38.2501C9.19891 38.2501 9.38968 38.3291 9.53033 38.4697C9.67098 38.6104 9.75 38.8011 9.75 39.0001C9.75 39.1484 9.70601 39.2934 9.6236 39.4167C9.54119 39.5401 9.42406 39.6362 9.28701 39.693C9.14997 39.7497 8.99917 39.7646 8.85368 39.7356C8.7082 39.7067 8.57456 39.6353 8.46967 39.5304C8.36478 39.4255 8.29335 39.2919 8.26441 39.1464C8.23547 39.0009 8.25033 38.8501 8.30709 38.713C8.36386 38.576 8.45999 38.4589 8.58332 38.3764ZM43.8333 35.3764C43.9567 35.294 44.1017 35.2501 44.25 35.2501C44.4489 35.2501 44.6397 35.3291 44.7803 35.4697C44.921 35.6104 45 35.8011 45 36.0001C45 36.1484 44.956 36.2934 44.8736 36.4167C44.7912 36.5401 44.6741 36.6362 44.537 36.693C44.4 36.7497 44.2492 36.7646 44.1037 36.7356C43.9582 36.7067 43.8246 36.6353 43.7197 36.5304C43.6148 36.4255 43.5434 36.2919 43.5144 36.1464C43.4855 36.0009 43.5003 35.8501 43.5571 35.713C43.6139 35.576 43.71 35.4589 43.8333 35.3764ZM38.5833 38.3764C38.7067 38.294 38.8517 38.2501 39 38.2501C39.1989 38.2501 39.3897 38.3291 39.5303 38.4697C39.671 38.6104 39.75 38.8011 39.75 39.0001C39.75 39.1484 39.706 39.2934 39.6236 39.4167C39.5412 39.5401 39.4241 39.6362 39.287 39.693C39.15 39.7497 38.9992 39.7646 38.8537 39.7356C38.7082 39.7067 38.5746 39.6353 38.4697 39.5304C38.3648 39.4255 38.2934 39.2919 38.2644 39.1464C38.2355 39.0009 38.2503 38.8501 38.3071 38.713C38.3639 38.576 38.46 38.4589 38.5833 38.3764Z" fill="#333333"></path></svg> 