<?xml version="1.0" encoding="UTF-8"?> <svg xmlns="http://www.w3.org/2000/svg" width="220" height="50" viewBox="0 0 220 50" fill="none"><g clip-path="url(#clip0_22484_19036)"><path d="M87.2092 32.4903V32.1634C84.8252 31.8023 82.3658 28.392 81.6321 24.6045H81.3052L81.7144 31.3177C82.6675 31.752 84.8687 32.3005 87.2138 32.4788M88.3407 22.1085C91.6001 23.816 93.511 25.1234 93.511 27.48C93.511 30.6365 91.3852 32.0148 88.7795 32.1611V32.488C91.8812 32.344 96.4824 30.856 96.4824 26.0651C96.4824 22.1085 93.6572 20.5474 90.3932 18.7691C86.9715 16.92 84.8184 15.8685 84.8184 13.2194C84.8184 10.9291 85.9567 9.62626 88.1555 9.44111V9.11654C84.9647 9.36569 81.847 11.512 81.847 15.0708C81.847 18.6274 85.3441 20.5268 88.3407 22.1085ZM118.764 10.7371C119.17 11.384 119.305 12.312 119.305 13.6857V27.9485C119.305 31.0297 118.535 31.9143 116.044 32.2023V32.4994H126.901V32.1748C124.048 31.8845 122.903 31 122.903 27.9188V10.088C121.5 10.0971 120.103 10.3143 118.764 10.7371ZM138.983 32.0103C137.881 31.864 136.999 31.1943 136.044 30.2503C133.662 27.8663 129.666 20.7874 129.666 20.7874C132.345 20.0171 134.361 18.2571 134.361 15.2125C134.361 12.168 132.27 10.0011 127.98 9.38169C126.993 9.24991 126.002 9.16144 125.008 9.11654V9.41826C128.528 9.82511 130.713 11.544 130.713 15.2125C130.713 18.0011 130.274 20.104 127.486 20.9177C127.031 21.0444 126.563 21.118 126.092 21.1371V21.32C127.26 23.7547 128.592 26.1075 130.078 28.3623C131.465 30.4011 133.255 32.4903 136.974 32.4994C137.642 32.5135 138.311 32.4561 138.967 32.328L138.983 32.0103ZM103.138 14.4148C102.663 13.192 102.297 12.2868 102.297 11.5143C102.297 10.1131 103.216 9.52111 105.196 9.41597V9.11426H94.3155V9.41597C96.4047 9.6354 97.6527 10.7714 98.8984 13.8525L106.236 32.4857H106.528L108.325 28.0011L103.138 14.4148ZM94.0481 12.9794H94.2561V10.584C93.4515 9.83654 91.7098 9.11426 89.8401 9.11426V9.43883C90.7793 9.63498 91.6552 10.0611 92.3892 10.679C93.1232 11.297 93.6947 12.0874 94.0481 12.9794ZM112.412 15.3177L109.794 22.44L110.076 23.0594C110.076 23.0594 111.913 18.136 113.225 14.7737C114.537 11.4137 116.316 10.0034 119.456 9.42054V9.11426H110.288V9.41597C112.962 9.41597 113.548 10.7348 112.999 13.3405C112.845 14.0106 112.649 14.6724 112.412 15.3177ZM81.5521 36.2411H81.2687V38.6365H82.8161V38.3691H81.5521V36.2411ZM83.959 37.6148L84.3384 36.6617L84.7178 37.6148H83.959ZM84.2218 36.2411L83.2572 38.6365H83.5498L83.8515 37.88H84.8207L85.1224 38.6365H85.4172L84.4572 36.2411H84.2195H84.2218ZM86.7727 38.3714H86.215V37.5348H86.7727C87.0927 37.5348 87.2824 37.6857 87.2824 37.9417C87.2824 38.2 87.095 38.3508 86.7727 38.3508V38.3714ZM86.215 36.4834H86.6904C87.0241 36.4834 87.1955 36.6137 87.1955 36.8903C87.1955 37.1691 87.0241 37.2743 86.6927 37.2743H86.2127V36.4834H86.215ZM87.191 37.368C87.283 37.3208 87.3594 37.248 87.4109 37.1584C87.4624 37.0687 87.4869 36.9661 87.4812 36.8628C87.4812 36.456 87.191 36.2183 86.6904 36.2183H85.9315V38.616H86.7452C87.2504 38.616 87.5612 38.3623 87.5612 37.9348C87.5636 37.8135 87.529 37.6943 87.462 37.5931C87.3951 37.4918 87.299 37.4133 87.1864 37.368M89.1361 38.392C88.6767 38.392 88.3498 37.9828 88.3498 37.432C88.3498 36.8834 88.6767 36.4765 89.1361 36.4765C89.5978 36.4765 89.9247 36.8583 89.9247 37.4343C89.9247 38.008 89.6092 38.392 89.1361 38.392ZM89.1361 36.2023C88.8902 36.1726 88.641 36.2184 88.4216 36.3335C88.2023 36.4486 88.023 36.6276 87.9077 36.8469C87.7923 37.0661 87.7463 37.3152 87.7756 37.5612C87.8049 37.8072 87.9083 38.0384 88.072 38.2244C88.2357 38.4103 88.452 38.5422 88.6923 38.6024C88.9326 38.6627 89.1855 38.6486 89.4176 38.5619C89.6497 38.4753 89.85 38.3202 89.9919 38.1172C90.1339 37.9142 90.2109 37.6728 90.2127 37.4251C90.2278 37.2732 90.2115 37.1198 90.1648 36.9745C90.1181 36.8291 90.042 36.6949 89.9413 36.5802C89.8405 36.4655 89.7172 36.3728 89.5791 36.3078C89.441 36.2428 89.2887 36.2068 89.1361 36.2023ZM91.1247 37.3611V36.5063H91.6778C92.0161 36.5063 92.2035 36.6571 92.2035 36.9337C92.2035 37.2103 92.0138 37.3405 91.6778 37.3405L91.1247 37.3634V37.3611ZM92.4847 36.9543C92.4847 36.52 92.1875 36.2617 91.671 36.2617H90.839V38.6571H91.1247V37.6423H91.6092L92.3018 38.6571H92.6355L91.9224 37.6011C92.0827 37.5806 92.2295 37.5007 92.3337 37.377C92.4378 37.2534 92.4917 37.0952 92.4847 36.9337M93.7258 37.6148L94.103 36.6617L94.4824 37.6148H93.7258ZM93.9841 36.2411L93.0264 38.6365H93.3212L93.6184 37.88H94.5875L94.8892 38.6365H95.1818L94.2241 36.2411H93.9841ZM95.1887 36.5108H96.0344V38.6365H96.3201V36.5108H97.1772V36.2411H95.1887V36.5108ZM98.5532 38.3897C98.0915 38.3897 97.7692 37.9828 97.7692 37.4343C97.7692 36.8834 98.0915 36.4743 98.5532 36.4743C99.0127 36.4743 99.3395 36.8583 99.3395 37.4343C99.3395 38.0057 99.0264 38.3897 98.5532 38.3897ZM98.5532 36.2023C98.3073 36.1731 98.0583 36.2193 97.8393 36.3347C97.6202 36.4502 97.4413 36.6294 97.3263 36.8487C97.2113 37.0681 97.1656 37.3171 97.1952 37.563C97.2249 37.8088 97.3284 38.0399 97.4923 38.2256C97.6561 38.4113 97.8725 38.5429 98.1127 38.603C98.353 38.663 98.6058 38.6487 98.8377 38.5619C99.0697 38.4752 99.2698 38.32 99.4117 38.117C99.5535 37.914 99.6304 37.6728 99.6321 37.4251C99.6472 37.2728 99.6308 37.1191 99.5838 36.9734C99.5369 36.8278 99.4604 36.6934 99.3591 36.5786C99.2579 36.4638 99.1341 36.3712 98.9954 36.3064C98.8568 36.2417 98.7062 36.2062 98.5532 36.2023ZM100.544 36.2411H100.258V38.6365H100.544V36.2411ZM101.58 37.3611V36.5063H102.137C102.473 36.5063 102.661 36.6571 102.661 36.9337C102.661 37.2103 102.469 37.3405 102.137 37.3405L101.58 37.3634V37.3611ZM102.942 36.9543C102.942 36.52 102.645 36.2617 102.146 36.2617H101.294V38.6571H101.58V37.6423H102.064L102.757 38.6571H103.095L102.38 37.6011C102.54 37.5806 102.687 37.5007 102.791 37.377C102.895 37.2534 102.949 37.0952 102.942 36.9337M103.634 38.6365H105.17V38.3691H103.913V37.5371H105.052V37.272H103.916V36.5108H105.17V36.2411H103.634V38.6365ZM107.783 38.3691H107.312V36.5108H107.781C108.019 36.5227 108.244 36.6257 108.408 36.7987C108.573 36.9716 108.665 37.2012 108.665 37.44C108.665 37.6787 108.573 37.9083 108.408 38.0813C108.244 38.2542 108.021 38.3573 107.783 38.3691ZM107.783 36.2411H107.029V38.6365H107.783C108.101 38.6365 108.405 38.5104 108.63 38.2857C108.854 38.0611 108.981 37.7565 108.981 37.4388C108.981 37.1212 108.854 36.8165 108.63 36.5919C108.405 36.3673 108.101 36.2411 107.783 36.2411ZM109.58 38.6365H111.118V38.3691H109.861V37.5371H110.999V37.272H109.861V36.5108H111.118V36.2411H109.58V38.6365ZM112.009 37.3611V36.5063H112.567C112.901 36.5063 113.088 36.6571 113.088 36.9337C113.088 37.2103 112.896 37.3405 112.567 37.3405L112.009 37.3634V37.3611ZM113.369 36.9543C113.369 36.52 113.072 36.2617 112.556 36.2617H111.724V38.6571H112.009V37.6423H112.494L113.17 38.6365H113.509L112.807 37.6011C112.967 37.5806 113.114 37.5007 113.218 37.377C113.322 37.2534 113.376 37.0952 113.369 36.9337M115.177 37.6628L114.297 36.2411H114.053V38.6365H114.334V36.8148L115.129 38.088L115.152 38.1063H115.207L116.009 36.8148V38.6365H116.29V36.2411H116.062L115.177 37.6628ZM117.527 37.6148L117.906 36.6617L118.286 37.6148H117.527ZM117.788 36.2411L116.83 38.6365H117.145L117.442 37.88H118.412L118.713 38.6365H119.006L118.048 36.2411H117.788ZM118.983 36.5108H119.829V38.6365H120.114V36.5108H120.972V36.2411H118.983V36.5108ZM122.338 38.3897C121.879 38.3897 121.557 37.9828 121.557 37.4343C121.557 36.8834 121.877 36.4743 122.338 36.4743C122.798 36.4743 123.129 36.8583 123.129 37.4343C123.129 38.0057 122.809 38.3897 122.338 38.3897ZM122.338 36.2023C122.093 36.1736 121.844 36.2202 121.625 36.336C121.406 36.4517 121.228 36.6312 121.113 36.8506C120.998 37.07 120.953 37.319 120.983 37.5648C121.013 37.8105 121.117 38.0414 121.281 38.2269C121.445 38.4123 121.661 38.5436 121.901 38.6035C122.141 38.6633 122.394 38.6488 122.626 38.5619C122.858 38.4751 123.058 38.3199 123.199 38.1169C123.341 37.9139 123.418 37.6727 123.42 37.4251C123.433 37.273 123.415 37.1197 123.368 36.9746C123.32 36.8295 123.243 36.6957 123.142 36.5813C123.041 36.4669 122.917 36.3742 122.779 36.3091C122.641 36.2439 122.491 36.2076 122.338 36.2023ZM124.32 36.2411H124.037V38.6365H125.584V38.3691H124.32V36.2411ZM126.99 38.3897C126.53 38.3897 126.208 37.9828 126.208 37.4343C126.208 36.8834 126.528 36.4743 126.99 36.4743C127.452 36.4743 127.781 36.8583 127.781 37.4343C127.781 38.0057 127.463 38.3897 126.99 38.3897ZM126.99 36.2023C126.744 36.1736 126.495 36.2202 126.276 36.336C126.057 36.4517 125.879 36.6312 125.764 36.8506C125.65 37.07 125.604 37.319 125.634 37.5648C125.664 37.8105 125.768 38.0414 125.932 38.2269C126.096 38.4123 126.312 38.5436 126.553 38.6035C126.793 38.6633 127.046 38.6488 127.277 38.5619C127.509 38.4751 127.709 38.3199 127.851 38.1169C127.993 37.9139 128.069 37.6727 128.071 37.4251C128.087 37.2725 128.071 37.1183 128.024 36.9722C127.977 36.8261 127.9 36.6913 127.799 36.5763C127.697 36.4614 127.573 36.3688 127.434 36.3044C127.294 36.24 127.143 36.2052 126.99 36.2023ZM129.646 37.64H130.233V38.2297C130.071 38.3579 129.868 38.4228 129.662 38.4125C129.164 38.4125 128.846 38.0331 128.846 37.4457C128.829 37.3279 128.838 37.208 128.871 37.0939C128.904 36.9797 128.961 36.8739 129.039 36.7834C129.116 36.6929 129.211 36.6198 129.319 36.5689C129.426 36.5179 129.543 36.4904 129.662 36.488C129.903 36.4814 130.136 36.5692 130.313 36.7325L130.391 36.8011V36.4583C130.235 36.3448 130.054 36.27 129.863 36.24C129.672 36.21 129.477 36.2256 129.293 36.2855C129.11 36.3455 128.943 36.4481 128.806 36.5849C128.67 36.7218 128.568 36.889 128.509 37.0728C128.45 37.2567 128.435 37.452 128.465 37.6427C128.496 37.8334 128.572 38.0141 128.686 38.17C128.8 38.3259 128.949 38.4525 129.122 38.5396C129.294 38.6267 129.485 38.6716 129.678 38.6708C129.83 38.6768 129.982 38.6499 130.123 38.5919C130.263 38.534 130.39 38.4462 130.494 38.3348V37.3748H129.637L129.646 37.64ZM131.49 36.2411H131.205V38.6365H131.49V36.2411ZM133.746 38.1474L133.559 37.9051L133.351 38.0651L133.545 38.3097C133.432 38.3685 133.307 38.3991 133.18 38.3988C132.72 38.3988 132.398 37.992 132.398 37.4388C132.398 36.8834 132.718 36.4788 133.18 36.4788C133.641 36.4788 133.97 36.8628 133.97 37.4388C133.984 37.6944 133.904 37.9461 133.746 38.1474ZM133.18 36.2045C132.894 36.2572 132.635 36.4084 132.449 36.6318C132.263 36.8552 132.161 37.1367 132.161 37.4274C132.161 37.7181 132.263 37.9996 132.449 38.223C132.635 38.4464 132.894 38.5976 133.18 38.6503C133.367 38.6514 133.552 38.6025 133.714 38.5085L133.909 38.7531L134.108 38.5908L133.918 38.3463C134.149 38.0928 134.272 37.7589 134.261 37.416C134.275 37.2637 134.259 37.11 134.211 36.9644C134.164 36.8189 134.087 36.6847 133.986 36.5701C133.885 36.4556 133.761 36.3632 133.622 36.2987C133.483 36.2343 133.333 36.1991 133.18 36.1954M136.462 37.6423C136.462 38.1154 136.222 38.3874 135.806 38.3874C135.39 38.3874 135.154 38.1154 135.154 37.6423V36.2411H134.869V37.6834C134.856 37.8146 134.87 37.947 134.912 38.0721C134.953 38.1973 135.02 38.3124 135.109 38.41C135.197 38.5077 135.305 38.5858 135.426 38.6392C135.546 38.6926 135.676 38.7202 135.808 38.7202C135.94 38.7202 136.07 38.6926 136.191 38.6392C136.311 38.5858 136.419 38.5077 136.508 38.41C136.596 38.3124 136.663 38.1973 136.705 38.0721C136.746 37.947 136.76 37.8146 136.748 37.6834V36.2411H136.462V37.6423ZM139.02 36.5108V36.2411H137.481V38.6365H139.02V38.3691H137.762V37.5371H138.901V37.2674H137.765V36.5108H139.02Z" fill="#7A7B7B"></path></g><defs><clipPath id="clip0_22484_19036"><rect width="59.4286" height="32" fill="white" transform="translate(80.2858 9)"></rect></clipPath></defs></svg> 