<?xml version="1.0" encoding="UTF-8"?> <svg xmlns="http://www.w3.org/2000/svg" width="230" height="26" viewBox="0 0 230 26" fill="none"><path fill-rule="evenodd" clip-rule="evenodd" d="M50.5881 26C48.6943 26 46.9647 25.673 45.3991 25.0189C43.8589 24.3396 42.5206 23.4088 41.3843 22.2264C40.248 21.044 39.3643 19.6604 38.733 18.0755C38.127 16.4906 37.824 14.7925 37.824 12.9811C37.824 11.1698 38.127 9.48428 38.733 7.92453C39.3643 6.33962 40.248 4.95597 41.3843 3.77358C42.5206 2.59119 43.8589 1.67295 45.3991 1.01887C46.9647 0.339622 48.6943 0 50.5881 0C52.4819 0 54.2116 0.339622 55.7771 1.01887C57.3426 1.67295 58.6809 2.59119 59.7919 3.77358C60.9282 4.95597 61.7993 6.33962 62.4054 7.92453C63.0366 9.48428 63.3522 11.1698 63.3522 12.9811C63.3522 14.7925 63.0366 16.4906 62.4054 18.0755C61.7993 19.6604 60.9282 21.044 59.7919 22.2264C58.6809 23.4088 57.3426 24.3396 55.7771 25.0189C54.2116 25.673 52.4819 26 50.5881 26ZM50.5881 20.7547C52.1536 20.7547 53.4541 20.4277 54.4893 19.7736C55.5498 19.0943 56.3326 18.1635 56.8376 16.9811C57.3679 15.7987 57.633 14.4654 57.633 12.9811C57.633 11.4717 57.3679 10.1384 56.8376 8.98113C56.3326 7.79874 55.5498 6.8805 54.4893 6.22641C53.4541 5.54717 52.1536 5.20754 50.5881 5.20754C49.0478 5.20754 47.7474 5.54717 46.6869 6.22641C45.6516 6.8805 44.8689 7.79874 44.3386 8.98113C43.8084 10.1384 43.5432 11.4717 43.5432 12.9811C43.5432 14.4654 43.8084 15.7987 44.3386 16.9811C44.8689 18.1635 45.6516 19.0943 46.6869 19.7736C47.7474 20.4277 49.0478 20.7547 50.5881 20.7547Z" fill="#333333"></path><path d="M16.7032 12.4151L13.408 25.6604H6.098L0 0.377358H6.2495L8.93868 14.1887L9.88558 21.8491L11.2112 14.7925L14.5064 0.377358H21.6649L24.9223 14.7925L26.21 21.8491L27.1948 14.1887L29.9219 0.377358H36.1335L29.9976 25.6604H22.6876L19.4303 12.4151L18.0667 4.22641L16.7032 12.4151Z" fill="#333333"></path><path fill-rule="evenodd" clip-rule="evenodd" d="M73.584 25.0189C75.1496 25.673 76.8792 26 78.773 26C80.6668 26 82.3965 25.673 83.962 25.0189C85.5275 24.3396 86.8658 23.4088 87.9768 22.2264C89.1131 21.044 89.9842 19.6604 90.5903 18.0755C91.2215 16.4906 91.5371 14.7925 91.5371 12.9811C91.5371 11.1698 91.2215 9.48428 90.5903 7.92453C89.9842 6.33962 89.1131 4.95597 87.9768 3.77358C86.8658 2.59119 85.5275 1.67295 83.962 1.01887C82.3965 0.339622 80.6668 0 78.773 0C76.8792 0 75.1496 0.339622 73.584 1.01887C72.0438 1.67295 70.7055 2.59119 69.5692 3.77358C68.4329 4.95597 67.5492 6.33962 66.9179 7.92453C66.3119 9.48428 66.0089 11.1698 66.0089 12.9811C66.0089 14.7925 66.3119 16.4906 66.9179 18.0755C67.5492 19.6604 68.4329 21.044 69.5692 22.2264C70.7055 23.4088 72.0438 24.3396 73.584 25.0189ZM82.6742 19.7736C81.6389 20.4277 80.3385 20.7547 78.773 20.7547C77.2327 20.7547 75.9323 20.4277 74.8718 19.7736C73.8365 19.0943 73.0538 18.1635 72.5235 16.9811C71.9933 15.7987 71.7281 14.4654 71.7281 12.9811C71.7281 11.4717 71.9933 10.1384 72.5235 8.98113C73.0538 7.79874 73.8365 6.8805 74.8718 6.22641C75.9323 5.54717 77.2327 5.20754 78.773 5.20754C80.3385 5.20754 81.6389 5.54717 82.6742 6.22641C83.7347 6.8805 84.5175 7.79874 85.0225 8.98113C85.5528 10.1384 85.8179 11.4717 85.8179 12.9811C85.8179 14.4654 85.5528 15.7987 85.0225 16.9811C84.5175 18.1635 83.7347 19.0943 82.6742 19.7736Z" fill="#333333"></path><path fill-rule="evenodd" clip-rule="evenodd" d="M111.73 24.0755C109.937 25.1321 107.753 25.6604 105.178 25.6604H94.9134V0.377358H105.102C107.678 0.377358 109.874 0.90566 111.692 1.96226C113.536 3.01887 114.937 4.49057 115.897 6.37736C116.856 8.26415 117.336 10.478 117.336 13.0189C117.336 15.5346 116.856 17.7484 115.897 19.6604C114.937 21.5472 113.548 23.0189 111.73 24.0755ZM108.587 20C107.577 20.5786 106.289 20.8679 104.723 20.8679H100.33V5.16981H104.647C106.213 5.16981 107.513 5.4717 108.549 6.07547C109.584 6.65409 110.354 7.52201 110.859 8.67924C111.389 9.83648 111.655 11.283 111.655 13.0189C111.655 14.7296 111.402 16.1761 110.897 17.3585C110.392 18.5157 109.622 19.3962 108.587 20Z" fill="#333333"></path><path d="M132.018 9.77358L127.89 0.377358H120.731V25.6604H126.147V16.1887L125.352 6L128.42 14.4151L131.564 21.283H137.245L140.389 14.4151L143.419 6L142.661 16.1887V25.6604H148.077V0.377358H140.919L136.79 9.77358L134.404 17.283L132.018 9.77358Z" fill="#333333"></path><path fill-rule="evenodd" clip-rule="evenodd" d="M158.103 20.0377L156.072 25.6604H150.315L159.822 0.377358H166.791L176.298 25.6604H170.351L168.334 20.0377H158.103ZM164.746 10.0377L166.695 15.4717H159.753L161.716 10.0377L163.231 4.67924L164.746 10.0377Z" fill="#333333"></path><path fill-rule="evenodd" clip-rule="evenodd" d="M188.543 16.717C187.911 16.3648 187.04 16.1887 185.929 16.1887H183.96V25.6604H178.543V0.377358H190.323C192.141 0.377358 193.769 0.666666 195.209 1.24528C196.648 1.79874 197.772 2.66667 198.58 3.84906C199.413 5.00629 199.83 6.47799 199.83 8.26415C199.83 10 199.413 11.4214 198.58 12.5283C197.772 13.6101 196.673 14.4025 195.284 14.9057C194.466 15.2077 193.583 15.4146 192.637 15.5263C193.014 15.6297 193.354 15.7625 193.656 15.9245C194.338 16.2516 194.918 16.6792 195.398 17.2075C195.878 17.7358 196.345 18.3648 196.8 19.0943L200.814 25.6604H194.565L190.285 18.4906C189.78 17.6604 189.199 17.0692 188.543 16.717ZM192.217 11.5094C191.611 11.7358 190.916 11.8491 190.133 11.8491H183.96V5.16981H190.133C190.916 5.16981 191.611 5.28302 192.217 5.50943C192.823 5.71069 193.29 6.06289 193.618 6.56604C193.971 7.06918 194.148 7.72327 194.148 8.5283C194.148 9.33333 193.971 9.97484 193.618 10.4528C193.29 10.9308 192.823 11.283 192.217 11.5094Z" fill="#333333"></path><path d="M214.839 25.6604H209.423V5.16981H201.847V0.377358H222.414V5.16981H214.839V25.6604Z" fill="#333333"></path><path d="M224.243 25.6604H230V19.8113H224.243V25.6604Z" fill="#333333"></path></svg> 