<?xml version="1.0" encoding="UTF-8"?> <svg xmlns="http://www.w3.org/2000/svg" width="12" height="12" viewBox="0 0 12 12" fill="none"><path d="M6.41016 0.857422L11.4414 5.56055C11.487 5.59701 11.5189 5.64258 11.5371 5.69727C11.5645 5.75195 11.5781 5.8112 11.5781 5.875C11.5781 5.9388 11.5645 5.99805 11.5371 6.05273C11.5189 6.10742 11.487 6.15299 11.4414 6.18945L6.41016 10.8926C6.36458 10.9382 6.31445 10.9701 6.25977 10.9883C6.21419 11.0065 6.16406 11.0156 6.10938 11.0156C6.04557 11.0156 5.98633 11.0065 5.93164 10.9883C5.87695 10.9609 5.83138 10.9245 5.79492 10.8789C5.74935 10.8333 5.71745 10.7878 5.69922 10.7422C5.68099 10.6875 5.67188 10.6328 5.67188 10.5781C5.67188 10.5234 5.68099 10.4688 5.69922 10.4141C5.72656 10.3503 5.76302 10.3001 5.80859 10.2637L10.0332 6.3125H0.859375C0.804688 6.3125 0.75 6.30339 0.695312 6.28516C0.64974 6.26693 0.608724 6.23958 0.572266 6.20312C0.526693 6.16667 0.490234 6.12109 0.462891 6.06641C0.435547 6.0026 0.421875 5.9388 0.421875 5.875C0.421875 5.8112 0.435547 5.75195 0.462891 5.69727C0.490234 5.63346 0.526693 5.58333 0.572266 5.54688C0.608724 5.51042 0.64974 5.48307 0.695312 5.46484C0.75 5.44661 0.804688 5.4375 0.859375 5.4375H10.0332L5.80859 1.48633C5.76302 1.44987 5.72656 1.4043 5.69922 1.34961C5.68099 1.28581 5.67188 1.22656 5.67188 1.17188C5.67188 1.11719 5.68099 1.06706 5.69922 1.02148C5.71745 0.966797 5.74935 0.916667 5.79492 0.871094C5.83138 0.825521 5.87695 0.79362 5.93164 0.775391C5.99544 0.748047 6.05469 0.734375 6.10938 0.734375C6.16406 0.734375 6.21419 0.74349 6.25977 0.761719C6.31445 0.779948 6.36458 0.811849 6.41016 0.857422Z" fill="white"></path></svg> 