<?xml version="1.0" encoding="UTF-8"?> <svg xmlns="http://www.w3.org/2000/svg" width="16" height="11" viewBox="0 0 16 11" fill="none"><path d="M15.1504 1.76562C15.2324 2.05729 15.2962 2.41276 15.3418 2.83203C15.3783 3.24219 15.4056 3.63867 15.4238 4.02148C15.4421 4.39518 15.4557 4.71419 15.4648 4.97852C15.4648 5.25195 15.4648 5.38867 15.4648 5.38867C15.4648 5.38867 15.4648 5.52083 15.4648 5.78516C15.4557 6.04948 15.4421 6.37305 15.4238 6.75586C15.4056 7.13867 15.3783 7.53516 15.3418 7.94531C15.2962 8.35547 15.2324 8.70638 15.1504 8.99805C15.0684 9.32617 14.9089 9.60872 14.6719 9.8457C14.4349 10.0736 14.1569 10.2285 13.8379 10.3105C13.5462 10.3926 13.0768 10.4518 12.4297 10.4883C11.7826 10.5339 11.1309 10.5658 10.4746 10.584C9.81836 10.6022 9.24414 10.6159 8.75195 10.625C8.25065 10.625 8 10.625 8 10.625C8 10.625 7.74935 10.625 7.24805 10.625C6.75586 10.6159 6.18164 10.6022 5.52539 10.584C4.86914 10.5658 4.21745 10.5339 3.57031 10.4883C2.92318 10.4518 2.45378 10.3926 2.16211 10.3105C1.8431 10.2285 1.5651 10.0736 1.32812 9.8457C1.09115 9.60872 0.931641 9.32617 0.849609 8.99805C0.767578 8.70638 0.703776 8.35547 0.658203 7.94531C0.621745 7.53516 0.594401 7.13867 0.576172 6.75586C0.557943 6.37305 0.544271 6.04948 0.535156 5.78516C0.535156 5.52083 0.535156 5.38867 0.535156 5.38867C0.535156 5.38867 0.535156 5.25195 0.535156 4.97852C0.544271 4.71419 0.557943 4.39518 0.576172 4.02148C0.594401 3.63867 0.621745 3.24219 0.658203 2.83203C0.703776 2.41276 0.767578 2.05729 0.849609 1.76562C0.931641 1.44661 1.09115 1.16862 1.32812 0.931641C1.5651 0.685547 1.8431 0.521484 2.16211 0.439453C2.45378 0.357422 2.92318 0.298177 3.57031 0.261719C4.21745 0.216146 4.86914 0.184245 5.52539 0.166016C6.18164 0.147786 6.75586 0.134115 7.24805 0.125C7.74935 0.125 8 0.125 8 0.125C8 0.125 8.25065 0.125 8.75195 0.125C9.24414 0.134115 9.81836 0.147786 10.4746 0.166016C11.1309 0.184245 11.7826 0.216146 12.4297 0.261719C13.0768 0.298177 13.5462 0.357422 13.8379 0.439453C14.1569 0.521484 14.4349 0.685547 14.6719 0.931641C14.9089 1.16862 15.0684 1.44661 15.1504 1.76562ZM6.46875 7.60352L10.3789 5.38867L6.46875 3.16016V7.60352Z" fill="#333333"></path></svg> 