<?xml version="1.0" encoding="UTF-8" standalone="no"?> <svg xmlns="http://www.w3.org/2000/svg" version="1.0" width="958.000000pt" height="292.000000pt" viewBox="0 0 958.000000 292.000000" preserveAspectRatio="xMidYMid meet"><g transform="translate(0.000000,292.000000) scale(0.100000,-0.100000)" fill="#000000" stroke="none"><path d="M3805 2795 c-687 -105 -1070 -334 -1194 -714 -68 -208 -7 -371 139 -371 37 0 110 25 110 37 0 2 -12 25 -27 50 -52 90 -41 238 29 377 110 220 355 398 659 480 93 25 298 60 306 52 5 -5 -108 -209 -276 -501 -200 -346 -259 -452 -401 -725 -278 -534 -328 -607 -426 -628 -35 -7 -39 -11 -42 -40 l-3 -32 305 0 306 0 0 30 c0 29 -2 30 -43 30 -57 0 -87 22 -87 64 0 22 53 139 164 364 l165 331 30 -10 c29 -10 67 -59 89 -114 6 -16 41 -149 76 -295 80 -327 104 -405 171 -546 83 -175 161 -280 273 -365 142 -107 292 -155 457 -146 163 9 273 56 388 165 33 31 77 98 77 117 0 17 -30 -2 -81 -50 -34 -33 -87 -69 -126 -88 -62 -29 -76 -32 -168 -32 -81 0 -111 4 -157 23 -169 68 -318 250 -417 507 -17 44 -58 170 -91 280 -96 318 -142 432 -206 511 l-33 41 122 30 c154 38 255 80 367 153 275 181 413 420 379 658 -25 173 -132 288 -319 342 -97 28 -376 37 -515 15z m442 -94 c108 -55 157 -178 133 -331 -16 -101 -42 -167 -101 -254 -124 -186 -358 -346 -603 -412 -81 -21 -166 -32 -166 -20 0 4 463 818 561 987 l38 66 49 -8 c28 -4 68 -17 89 -28z"></path><path d="M4967 2533 c-3 -5 -30 -71 -62 -148 -61 -150 -68 -163 -100 -175 -13 -6 1 -9 45 -9 51 0 60 2 41 10 -24 10 -24 22 -1 84 9 23 14 25 69 25 l59 0 18 -46 c17 -45 17 -47 -1 -60 -17 -12 -11 -14 51 -14 62 0 66 2 44 13 -20 10 -37 44 -84 170 -55 146 -68 169 -79 150z m17 -120 c23 -68 22 -73 -24 -73 -25 0 -40 5 -40 13 0 20 33 107 41 107 4 0 14 -21 23 -47z"></path><path d="M5190 2531 c0 -5 9 -11 20 -14 20 -5 20 -12 18 -153 l-3 -148 -25 -7 c-14 -4 32 -7 101 -8 l127 -1 10 40 c5 23 6 40 1 40 -5 0 -9 -5 -9 -10 0 -23 -50 -60 -80 -60 -68 0 -70 5 -70 161 l0 139 25 10 c40 15 30 20 -45 20 -38 0 -70 -4 -70 -9z"></path><path d="M5667 2516 c-55 -51 -29 -125 60 -170 47 -23 63 -44 63 -80 0 -42 -16 -56 -62 -56 -33 0 -42 5 -69 43 l-32 42 6 -39 c8 -51 16 -58 74 -63 82 -7 141 44 129 112 -6 29 -16 42 -54 65 -82 50 -102 69 -102 99 0 67 78 81 118 21 l23 -35 -3 40 -3 40 -61 3 c-53 2 -64 0 -87 -22z"></path><path d="M6047 2533 c-3 -5 -30 -71 -62 -148 -61 -150 -68 -163 -100 -175 -13 -6 1 -9 45 -9 51 0 60 2 41 10 -24 10 -24 22 -1 84 9 23 14 25 69 25 l59 0 18 -46 c17 -45 17 -47 -1 -60 -17 -12 -11 -14 51 -14 62 0 66 2 44 13 -20 10 -37 44 -84 170 -55 146 -68 169 -79 150z m17 -120 c23 -68 22 -73 -24 -73 -25 0 -40 5 -40 13 0 20 33 107 41 107 4 0 14 -21 23 -47z"></path><path d="M6421 2518 c-64 -166 -116 -277 -137 -295 l-25 -23 58 1 c47 0 53 2 34 10 -24 10 -24 22 -1 84 9 25 13 26 72 23 l61 -3 15 -44 c14 -41 13 -45 -4 -58 -15 -11 -9 -13 52 -13 64 1 67 2 44 14 -20 11 -37 47 -84 170 -32 86 -63 156 -68 156 -5 0 -12 -10 -17 -22z m27 -115 c11 -29 17 -54 14 -57 -3 -4 -23 -6 -44 -6 -26 0 -38 4 -38 14 0 18 39 110 44 105 2 -2 13 -27 24 -56z"></path><path d="M6650 2531 c0 -6 9 -11 20 -11 20 0 20 -5 18 -152 l-3 -152 -25 -7 c-14 -4 19 -7 75 -8 124 -1 166 10 218 59 39 36 41 41 45 106 6 129 -42 164 -230 172 -84 3 -118 2 -118 -7z m229 -29 c88 -47 95 -203 12 -261 -40 -28 -98 -35 -127 -16 -23 15 -24 19 -24 149 0 73 3 136 7 139 13 14 99 6 132 -11z"></path><path d="M6700 1905 c-168 -47 -327 -179 -462 -385 -198 -302 -217 -578 -48 -691 57 -38 109 -52 200 -52 144 0 254 53 399 189 85 81 159 183 146 203 -14 24 -42 7 -129 -78 -154 -150 -233 -199 -336 -208 -108 -9 -160 58 -159 202 1 44 4 94 8 110 6 29 8 30 81 37 93 9 147 23 226 58 276 123 435 395 322 553 -44 61 -151 88 -248 62z m77 -87 c30 -39 20 -126 -27 -227 -41 -87 -152 -197 -240 -238 -73 -35 -140 -50 -140 -33 0 21 97 216 144 289 103 160 225 257 263 209z"></path><path d="M4875 1901 c-99 -26 -218 -104 -313 -205 -322 -344 -356 -809 -67 -907 100 -33 280 -5 404 64 81 45 217 185 270 281 174 308 155 646 -43 749 -31 16 -63 21 -131 23 -49 2 -103 0 -120 -5z m149 -72 c79 -36 75 -234 -8 -483 -81 -243 -200 -412 -333 -473 -65 -30 -104 -24 -137 20 -18 25 -21 42 -21 140 1 103 4 120 39 222 93 268 260 518 378 570 41 18 51 18 82 4z"></path><path d="M5760 1892 c-74 -28 -105 -48 -153 -102 -60 -67 -87 -139 -87 -235 0 -97 20 -148 105 -271 105 -150 126 -231 86 -320 -54 -118 -226 -141 -318 -42 -31 33 -62 107 -63 148 -1 19 -5 44 -9 54 -7 18 -10 16 -34 -15 -64 -85 -82 -169 -48 -226 41 -66 211 -122 330 -107 228 27 374 165 375 354 1 67 -3 83 -36 150 -20 41 -63 116 -96 166 -69 108 -97 186 -88 247 14 89 71 140 157 141 83 0 150 -60 163 -146 14 -91 40 -89 94 8 52 95 27 148 -92 193 -72 27 -218 28 -286 3z"></path></g></svg> 