<?xml version="1.0" encoding="UTF-8"?> <svg xmlns="http://www.w3.org/2000/svg" version="1.1" width="958" height="292"><path d="M0 0 C8.07646315 7.388334 13.48335907 16.60595135 14.078125 27.7578125 C14.45299226 46.13859915 8.80851027 61.90248329 -4.00268555 75.34692383 C-5.40651574 76.77695821 -6.83194829 78.18568437 -8.2578125 79.59375 C-9.07378906 80.4084375 -9.88976562 81.223125 -10.73046875 82.0625 C-25.75120016 96.32608886 -51.03648937 109.59375 -72.2578125 109.59375 C-71.71253906 110.3259375 -71.16726563 111.058125 -70.60546875 111.8125 C-59.22436216 128.15460177 -54.25391266 147.30741974 -48.7578125 166.21875 C-40.61121472 194.24726133 -31.22936331 223.79168549 -5.10546875 240.0390625 C-1.23450616 242.15242754 2.43353767 243.66086802 6.7421875 244.59375 C7.78052734 244.82191406 7.78052734 244.82191406 8.83984375 245.0546875 C20.0809057 246.89079562 31.38280364 243.89284486 40.7421875 237.59375 C43.5488206 235.03183696 46.14478077 232.39677424 48.68359375 229.5703125 C50.7421875 227.59375 50.7421875 227.59375 53.7421875 227.59375 C53.85872709 232.95457131 52.31786627 235.54864628 48.8046875 239.59375 C36.52209148 252.36067551 21.69024834 258.34687228 4.1171875 258.96875 C-16.62528294 258.5607014 -33.67671066 249.82984905 -48.39453125 235.515625 C-70.42268476 212.14587471 -77.80838343 178.84607133 -85.0078125 148.59375 C-86.09560379 144.02846777 -87.19640422 139.46659508 -88.3046875 134.90625 C-88.54330505 133.88539307 -88.78192261 132.86453613 -89.027771 131.81274414 C-90.46621786 125.89661325 -92.36706668 120.95132571 -95.2578125 115.59375 C-95.5878125 114.60375 -95.9178125 113.61375 -96.2578125 112.59375 C-98.2378125 112.26375 -100.2178125 111.93375 -102.2578125 111.59375 C-102.57243942 112.23553192 -102.88706635 112.87731384 -103.21122742 113.5385437 C-106.19665809 119.62810496 -109.18246787 125.7174802 -112.16868877 131.80665398 C-113.70340256 134.93610663 -115.23797682 138.06562753 -116.7722168 141.1953125 C-118.54172314 144.80489935 -120.31186403 148.4141747 -122.08203125 152.0234375 C-122.62494308 153.13113495 -123.16785492 154.2388324 -123.72721863 155.38009644 C-124.24738052 156.44044098 -124.76754242 157.50078552 -125.3034668 158.59326172 C-126.04577042 160.11146515 -126.04577042 160.11146515 -126.80307007 161.66033936 C-127.76290557 163.59579652 -128.74162783 165.52201645 -129.74014282 167.43780518 C-130.19561493 168.3144281 -130.65108704 169.19105103 -131.12036133 170.09423828 C-131.52434647 170.85600372 -131.9283316 171.61776917 -132.34455872 172.40261841 C-133.82667124 175.95858896 -133.67238308 178.79351969 -133.2578125 182.59375 C-131.60553324 184.24602926 -129.52546946 183.9133682 -127.2578125 184.09375 C-122.36892361 184.48263889 -122.36892361 184.48263889 -121.2578125 185.59375 C-121.2578125 187.57375 -121.2578125 189.55375 -121.2578125 191.59375 C-142.0478125 191.59375 -162.8378125 191.59375 -184.2578125 191.59375 C-184.2578125 189.28375 -184.2578125 186.97375 -184.2578125 184.59375 C-183.60554688 184.43519531 -182.95328125 184.27664062 -182.28125 184.11328125 C-181.40726562 183.87996094 -180.53328125 183.64664063 -179.6328125 183.40625 C-178.77429688 183.18582031 -177.91578125 182.96539062 -177.03125 182.73828125 C-169.82776457 179.76557529 -166.50189244 174.40170045 -162.7578125 167.90625 C-162.24573242 167.03395752 -161.73365234 166.16166504 -161.20605469 165.26293945 C-152.00295897 149.43489072 -143.56677674 133.18634405 -135.21633911 116.89785767 C-134.71093094 115.91201187 -134.71093094 115.91201187 -134.1953125 114.90625 C-133.85829315 114.24877777 -133.5212738 113.59130554 -133.17404175 112.91390991 C-127.34324059 101.55346982 -121.20359701 90.40179879 -114.83007812 79.33544922 C-112.67775657 75.58225495 -110.56027339 71.80982535 -108.44067383 68.03808594 C-102.94595783 58.26565447 -97.33186848 48.56970399 -91.65551758 38.90185547 C-86.31024879 29.7600657 -81.1636976 20.51275097 -76.05517578 11.23730469 C-75.45688965 10.15223633 -74.85860352 9.06716797 -74.2421875 7.94921875 C-73.71334961 6.98653076 -73.18451172 6.02384277 -72.63964844 5.03198242 C-71.58713279 3.17483157 -70.44191209 1.36989938 -69.2578125 -0.40625 C-101.52376845 4.48545862 -134.82381229 13.30124973 -156.1484375 39.95703125 C-164.27254542 51.03054356 -171.26332986 64.26172893 -170.01171875 78.3671875 C-169.09321855 84.30086138 -167.47480272 88.55379866 -164.2578125 93.59375 C-164.2578125 94.25375 -164.2578125 94.91375 -164.2578125 95.59375 C-169.35397043 98.55878734 -173.20616886 100.36395919 -179.2578125 99.59375 C-184.72278265 97.89772478 -188.35256561 95.53795198 -191.2578125 90.59375 C-196.18897734 81.0638584 -193.99350577 70.03237981 -191.31640625 60.1015625 C-182.8533041 35.98024696 -163.98889929 19.81514701 -141.7109375 8.68359375 C-105.4817822 -8.6914511 -35.21379346 -28.63860381 0 0 Z M-40.2578125 -3.40625 C-52.19339282 16.6776592 -63.72128678 36.99669973 -75.08862305 57.40649414 C-79.79227492 65.82536394 -84.63507365 74.15879585 -89.55322266 82.45410156 C-93.04968106 88.3849082 -96.26689731 94.39220984 -99.2578125 100.59375 C-79.20522384 102.0009492 -57.46725196 90.62935352 -42.33984375 78.1953125 C-39.92275035 76.04599163 -37.57559484 73.84925028 -35.2578125 71.59375 C-34.3915625 70.789375 -33.5253125 69.985 -32.6328125 69.15625 C-20.27786621 55.82591322 -12.42615268 41.25772087 -12.98046875 22.69921875 C-13.76954887 13.86374417 -16.48148041 7.47381372 -23.2578125 1.59375 C-27.31208901 -1.2549779 -31.09375205 -2.53709878 -36.015625 -3.00390625 C-36.81371582 -3.08261963 -37.61180664 -3.16133301 -38.43408203 -3.24243164 C-39.33682861 -3.32352173 -39.33682861 -3.32352173 -40.2578125 -3.40625 Z " fill="#FFFFFF" transform="translate(451.2578125,22.40625)"></path><path d="M0 0 C7.72550554 6.08545408 11.11396207 14.19248765 12.50390625 23.76171875 C14.82100379 46.54651125 6.64665758 67.80133019 -7.51171875 85.37890625 C-9.67373578 87.84658776 -11.90163473 90.20156294 -14.21484375 92.52734375 C-15.0965625 93.46126953 -15.0965625 93.46126953 -15.99609375 94.4140625 C-20.22161651 98.53765379 -24.99225028 101.18925007 -30.21484375 103.83984375 C-30.87943604 104.17773926 -31.54402832 104.51563477 -32.22875977 104.86376953 C-39.92075971 108.59866809 -47.06301372 109.91953147 -55.58984375 109.90234375 C-56.84112061 109.89992676 -56.84112061 109.89992676 -58.11767578 109.89746094 C-64.475198 109.7709801 -69.68459155 108.83623942 -75.21484375 105.52734375 C-76.12234375 104.99109375 -77.02984375 104.45484375 -77.96484375 103.90234375 C-86.96358588 94.4036715 -88.83401198 83.57796097 -88.51953125 70.96484375 C-87.8372899 57.92895942 -82.46608937 46.71634369 -76.21484375 35.52734375 C-75.65796875 34.52703125 -75.10109375 33.52671875 -74.52734375 32.49609375 C-64.62345403 15.92612441 -48.48875421 0.36592548 -29.61328125 -4.8125 C-18.79771329 -6.91345515 -9.24843101 -6.14930951 0 0 Z M-40.50390625 20.6953125 C-42.87392626 24.2277443 -45.06632753 27.85700211 -47.21484375 31.52734375 C-47.56434082 32.11789551 -47.91383789 32.70844727 -48.27392578 33.31689453 C-57.88677633 49.76313955 -68.02960071 71.96207081 -64.58984375 91.46484375 C-63.46270503 95.59768574 -61.77723288 98.01747868 -58.21484375 100.52734375 C-52.80414443 101.60948361 -48.65764606 99.42345112 -44.21484375 96.52734375 C-24.31054982 81.89656226 -14.21516102 54.10374169 -10.33203125 30.54296875 C-9.08695902 21.79257963 -7.83029631 12.60416491 -12.96484375 4.90234375 C-23.41230612 -1.48221658 -35.09910978 13.21529554 -40.50390625 20.6953125 Z " fill="#FFFFFF" transform="translate(517.21484375,105.47265625)"></path><path d="M0 0 C3.94632546 3.06936425 5.97230876 6.53947329 7.546875 11.203125 C8.46048563 19.40437389 7.77008507 26.09865946 3.546875 33.203125 C3.12277344 33.94046875 2.69867187 34.6778125 2.26171875 35.4375 C-7.04434249 50.47236218 -22.94571227 60.94318077 -39.8671875 65.640625 C-46.23059647 67.02481064 -52.07718779 67.56754498 -58.453125 66.203125 C-58.54063913 70.07798135 -58.59368935 73.95258143 -58.640625 77.828125 C-58.66576172 78.92253906 -58.69089844 80.01695312 -58.71679688 81.14453125 C-58.84264306 89.12167409 -58.84264306 89.12167409 -55.453125 96.203125 C-52.57446216 99.03381012 -50.45306528 99.65550666 -46.453125 99.703125 C-30.3753263 99.12739481 -19.44460655 87.43798722 -8.953125 76.578125 C-8.47294922 76.05726318 -7.99277344 75.53640137 -7.49804688 74.99975586 C-4.65509754 72.00936102 -2.65228699 70.39534016 1.546875 70.203125 C2.546875 71.203125 2.546875 71.203125 2.609375 74.140625 C1.65969433 79.95741907 -2.63623662 83.97411412 -6.453125 88.203125 C-7.18789063 89.03199219 -7.92265625 89.86085938 -8.6796875 90.71484375 C-19.81862638 102.58023516 -33.62380724 112.04788279 -50.24755859 112.6159668 C-57.30906138 112.68872866 -64.08387744 112.57992435 -70.453125 109.203125 C-71.38125 108.72746094 -71.38125 108.72746094 -72.328125 108.2421875 C-78.50884101 104.48580406 -82.20591849 97.94474452 -84.453125 91.203125 C-86.38513048 65.53505214 -75.91432923 43.50246789 -59.453125 24.203125 C-58.65132812 23.23890625 -57.84953125 22.2746875 -57.0234375 21.28125 C-44.63150934 6.94937143 -19.7930991 -12.01119689 0 0 Z M-25.453125 11.203125 C-26.04867187 11.70457031 -26.64421875 12.20601562 -27.2578125 12.72265625 C-39.40772854 23.92107284 -47.44214653 40.02878674 -53.453125 55.203125 C-53.453125 55.863125 -53.453125 56.523125 -53.453125 57.203125 C-39.67630259 55.27609556 -29.62024285 48.07109318 -21.078125 37.140625 C-14.96511422 28.42008702 -11.90047494 19.88769289 -12.453125 9.203125 C-12.948125 8.213125 -12.948125 8.213125 -13.453125 7.203125 C-18.65897908 6.70732937 -21.55723296 7.91890683 -25.453125 11.203125 Z " fill="#FFFFFF" transform="translate(691.453125,102.796875)"></path><path d="M0 0 C2.48372743 1.84488408 4.03244058 3.88568299 5.625 6.51953125 C6.32256807 12.68138253 3.31253402 17.8831171 -0.0625 22.89453125 C-2 24.83203125 -2 24.83203125 -5 25.83203125 C-7 24.83203125 -7 24.83203125 -7.9296875 22.06640625 C-8.55690675 19.75450719 -9.18192859 17.44201078 -9.8046875 15.12890625 C-11.36310297 10.83053157 -13.29663455 7.79880623 -17.3125 5.51953125 C-23.6116919 3.90811007 -28.30270311 4.764256 -34 7.83203125 C-37.42033204 11.36637436 -38.144033 15.15128845 -38.3125 19.95703125 C-38.08538243 29.99887245 -32.22971413 37.95383623 -27.08325195 46.203125 C-19.63214867 58.15507194 -15.69903429 67.62679394 -17 81.83203125 C-17.81360277 85.26778754 -19.08176754 87.88310672 -21 90.83203125 C-21.46277344 91.58871094 -21.92554688 92.34539062 -22.40234375 93.125 C-26.97303036 99.79663791 -32.78599137 103.37941234 -40 106.83203125 C-40.75667969 107.19425781 -41.51335938 107.55648437 -42.29296875 107.9296875 C-54.06411315 112.40897254 -69.00588373 111.21963934 -80.37109375 106.31640625 C-85.55829973 103.38752323 -89.08244212 100.5847049 -91 94.83203125 C-91.58966243 86.90587116 -88.56099396 81.12305741 -84 74.83203125 C-83.01 73.84203125 -83.01 73.84203125 -82 72.83203125 C-81.01 72.83203125 -80.02 72.83203125 -79 72.83203125 C-78.82984375 73.84523438 -78.6596875 74.8584375 -78.484375 75.90234375 C-78.24031887 77.25403926 -77.99548568 78.60559463 -77.75 79.95703125 C-77.64042969 80.6221875 -77.53085937 81.28734375 -77.41796875 81.97265625 C-76.33023071 87.81209206 -73.99388023 91.89203967 -69.6875 96.08203125 C-64.32667353 99.57280198 -59.35587735 100.27442831 -53.14453125 99.375 C-48.19089818 98.12080146 -44.63254155 95.12723062 -42 90.83203125 C-39.61924181 83.68975669 -40.18782998 76.64522699 -43.4375 69.89453125 C-45.85848757 65.49430029 -48.64742678 61.41349768 -51.5625 57.33203125 C-59.20633043 46.55566655 -62.57275299 37.19308233 -61 23.83203125 C-58.63653691 14.04808628 -52.28185462 5.49325845 -44 -0.16796875 C-30.56033982 -7.40826761 -13.33746569 -7.78887157 0 0 Z " fill="#FFFFFF" transform="translate(612,105.16796875)"></path><path d="M0 0 C3.99974981 -0.11710979 7.99905281 -0.18755489 12 -0.25 C13.12535156 -0.28351562 14.25070312 -0.31703125 15.41015625 -0.3515625 C22.45509205 -0.43395941 27.05152579 0.12237312 33 4 C36.92482428 8.43120919 37.59469229 12.81549671 37.3125 18.64453125 C36.52760053 24.56071101 33.45000732 27.8627671 29.20703125 31.703125 C22.93522127 35.38850715 16.04605941 35.26570472 9 35.125 C8.12988281 35.11597656 7.25976562 35.10695312 6.36328125 35.09765625 C4.2420658 35.07434619 2.12099438 35.03848579 0 35 C0 34.01 0 33.02 0 32 C1.32 31.67 2.64 31.34 4 31 C4 22.09 4 13.18 4 4 C2.68 3.34 1.36 2.68 0 2 C0 1.34 0 0.68 0 0 Z M11 3 C10.9421696 7.45827926 10.90646145 11.9164628 10.875 16.375 C10.85824219 17.64601563 10.84148438 18.91703125 10.82421875 20.2265625 C10.81777344 21.43828125 10.81132813 22.65 10.8046875 23.8984375 C10.79421387 25.01911621 10.78374023 26.13979492 10.77294922 27.29443359 C10.71944677 30.14977843 10.71944677 30.14977843 13 32 C18.20978323 32.5009407 21.63238891 31.91174073 26 29 C29.50809652 24.82820954 30.90755433 21.45429463 31 16 C30.14383278 11.14289751 28.96077748 7.89374649 25.3125 4.5 C20.50168664 2.32151848 16.16264505 1.27911832 11 3 Z " fill="#FFFFFF" transform="translate(664,38)"></path><path d="M0 0 C0.99 0.33 1.98 0.66 3 1 C4.33447266 3.74389648 4.33447266 3.74389648 5.6640625 7.37109375 C5.90160248 8.00862076 6.13914246 8.64614777 6.38388062 9.30299377 C7.14177678 11.344008 7.88366276 13.39042012 8.625 15.4375 C9.37700271 17.47957633 10.13215687 19.52046772 10.88754272 21.56129456 C11.57148394 23.41458905 12.24807139 25.2705924 12.92431641 27.12670898 C14.14047539 30.86576021 14.14047539 30.86576021 17.0625 33.125 C17.701875 33.41375 18.34125 33.7025 19 34 C19 34.66 19 35.32 19 36 C14.05 36 9.1 36 4 36 C4.33 35.01 4.66 34.02 5 33 C5.66 33 6.32 33 7 33 C6.34 30.03 5.68 27.06 5 24 C1.04 24 -2.92 24 -7 24 C-7.66 26.97 -8.32 29.94 -9 33 C-7.68 33.33 -6.36 33.66 -5 34 C-5 34.66 -5 35.32 -5 36 C-9.29 36 -13.58 36 -18 36 C-18 35.01 -18 34.02 -18 33 C-17.08541016 32.65799561 -17.08541016 32.65799561 -16.15234375 32.30908203 C-13.34411706 30.6010839 -12.80890361 29.07311907 -11.5625 26.0546875 C-11.14226563 25.05953125 -10.72203125 24.064375 -10.2890625 23.0390625 C-9.86367188 21.99492188 -9.43828125 20.95078125 -9 19.875 C-8.14786694 17.82988065 -7.29373426 15.78559319 -6.4375 13.7421875 C-6.03015625 12.76604492 -5.6228125 11.78990234 -5.203125 10.78417969 C-3.61374931 7.10616824 -1.84254037 3.55712656 0 0 Z M-1 9 C-1.67119549 10.4562545 -2.33681807 11.91507867 -3 13.375 C-3.37125 14.18710937 -3.7425 14.99921875 -4.125 15.8359375 C-5.12495013 17.91998433 -5.12495013 17.91998433 -5 20 C-2.36 20 0.28 20 3 20 C2.01 16.37 1.02 12.74 0 9 C-0.33 9 -0.66 9 -1 9 Z " fill="#FFFFFF" transform="translate(643,37)"></path><path d="M0 0 C1.82739258 0.10180664 1.82739258 0.10180664 4 1 C5.44799805 3.74389648 5.44799805 3.74389648 6.76171875 7.37109375 C7.1159063 8.32738426 7.1159063 8.32738426 7.47724915 9.30299377 C8.22905458 11.3426818 8.95857255 13.38953811 9.6875 15.4375 C10.18927229 16.81369263 10.69251057 18.1893517 11.19726562 19.56445312 C12.12096167 22.08209382 13.03398494 24.60262034 13.94018555 27.12670898 C15.14016749 30.86873339 15.14016749 30.86873339 18.0625 33.125 C18.701875 33.41375 19.34125 33.7025 20 34 C19.505 34.99 19.505 34.99 19 36 C14.38 36 9.76 36 5 36 C5.33 35.01 5.66 34.02 6 33 C6.66 33 7.32 33 8 33 C7.34 30.03 6.68 27.06 6 24 C2.04 24 -1.92 24 -6 24 C-6.66 26.97 -7.32 29.94 -8 33 C-6.68 33.33 -5.36 33.66 -4 34 C-4.33 34.66 -4.66 35.32 -5 36 C-8.96 36 -12.92 36 -17 36 C-17 35.01 -17 34.02 -17 33 C-16.10220825 32.69727173 -16.10220825 32.69727173 -15.1862793 32.38842773 C-12.06781823 30.40800472 -11.42795288 28.17267163 -10.01953125 24.78515625 C-9.76121017 24.17361191 -9.5028891 23.56206757 -9.23674011 22.93199158 C-8.41604561 20.98049537 -7.61427541 19.02183414 -6.8125 17.0625 C-6.2622679 15.74754402 -5.71084826 14.43308429 -5.15820312 13.11914062 C-2.41470487 6.62242474 -2.41470487 6.62242474 0 0 Z M-1 10 C-1.99 13.3 -2.98 16.6 -4 20 C-1.36 20 1.28 20 4 20 C3.01 16.7 2.02 13.4 1 10 C0.34 10 -0.32 10 -1 10 Z " fill="#FFFFFF" transform="translate(604,37)"></path><path d="M0 0 C1.82739258 0.10180664 1.82739258 0.10180664 4 1 C5.44799805 3.74389648 5.44799805 3.74389648 6.76171875 7.37109375 C7.1159063 8.32738426 7.1159063 8.32738426 7.47724915 9.30299377 C8.22905458 11.3426818 8.95857255 13.38953811 9.6875 15.4375 C10.18927229 16.81369263 10.69251057 18.1893517 11.19726562 19.56445312 C12.12096167 22.08209382 13.03398494 24.60262034 13.94018555 27.12670898 C15.14016749 30.86873339 15.14016749 30.86873339 18.0625 33.125 C18.701875 33.41375 19.34125 33.7025 20 34 C19.505 34.99 19.505 34.99 19 36 C14.38 36 9.76 36 5 36 C5.33 35.01 5.66 34.02 6 33 C6.66 33 7.32 33 8 33 C7.34 30.03 6.68 27.06 6 24 C2.04 24 -1.92 24 -6 24 C-6.66 26.97 -7.32 29.94 -8 33 C-6.68 33.33 -5.36 33.66 -4 34 C-4.33 34.66 -4.66 35.32 -5 36 C-8.96 36 -12.92 36 -17 36 C-17 35.01 -17 34.02 -17 33 C-16.10220825 32.69727173 -16.10220825 32.69727173 -15.1862793 32.38842773 C-12.06781823 30.40800472 -11.42795288 28.17267163 -10.01953125 24.78515625 C-9.76121017 24.17361191 -9.5028891 23.56206757 -9.23674011 22.93199158 C-8.41604561 20.98049537 -7.61427541 19.02183414 -6.8125 17.0625 C-6.2622679 15.74754402 -5.71084826 14.43308429 -5.15820312 13.11914062 C-2.41470487 6.62242474 -2.41470487 6.62242474 0 0 Z M-1 10 C-1.99 13.3 -2.98 16.6 -4 20 C-1.36 20 1.28 20 4 20 C3.01 16.7 2.02 13.4 1 10 C0.34 10 -0.32 10 -1 10 Z " fill="#FFFFFF" transform="translate(496,37)"></path><path d="M0 0 C0.886875 -0.00257812 1.77375 -0.00515625 2.6875 -0.0078125 C5 0.125 5 0.125 7 1.125 C7.4140625 3.19140625 7.4140625 3.19140625 7.625 5.6875 C7.69976563 6.51378906 7.77453125 7.34007812 7.8515625 8.19140625 C7.90054688 8.82949219 7.94953125 9.46757813 8 10.125 C7.01 9.795 6.02 9.465 5 9.125 C4.608125 8.279375 4.21625 7.43375 3.8125 6.5625 C2.30087234 3.94128773 2.30087234 3.94128773 0.03125 3.796875 C-1.98208977 3.81105345 -3.99334002 3.96051967 -6 4.125 C-6.05662692 6.9563461 -6.0614755 8.55674709 -5 11.125 C-2.88899221 12.93567885 -0.67977107 14.29215972 1.703125 15.72265625 C5.49592503 18.03832838 8.36011317 20.41863513 9.9375 24.625 C10.04475089 28.91503567 8.81297059 31.23812299 5.9375 34.375 C2.00448803 36.71807096 -1.45105219 37.22874793 -6 37.125 C-9.5625 36.1875 -9.5625 36.1875 -12 35.125 C-12.33 31.825 -12.66 28.525 -13 25.125 C-10 26.125 -10 26.125 -8.1875 29.125 C-6.26631348 32.3587085 -6.26631348 32.3587085 -2.9375 33.1875 C-0.05016139 33.36294983 -0.05016139 33.36294983 1.9375 32 C3.20028636 30.13073973 3.20028636 30.13073973 3 27.6875 C1.29305543 23.31345453 -2.28279894 21.58400868 -6.125 19.125 C-8.87305976 17.21330625 -10.48014041 16.08028254 -12 13.125 C-12.5 9.6875 -12.5 9.6875 -12 6.125 C-8.18536413 1.50728289 -5.86724868 -0.01705596 0 0 Z " fill="#FFFFFF" transform="translate(575,36.875)"></path><path d="M0 0 C4.95 0 9.9 0 15 0 C15 0.66 15 1.32 15 2 C14.01 2.33 13.02 2.66 12 3 C12 12.24 12 21.48 12 31 C14.97 31 17.94 31 21 31 C23.49540371 28.13384514 23.49540371 28.13384514 25 25 C25.66 25 26.32 25 27 25 C26.85950482 26.47968324 26.71245174 27.95874516 26.5625 29.4375 C26.48128906 30.26121094 26.40007813 31.08492187 26.31640625 31.93359375 C26 34 26 34 25 35 C23.14630389 35.08737645 21.28932459 35.10698153 19.43359375 35.09765625 C18.30888672 35.09443359 17.18417969 35.09121094 16.02539062 35.08789062 C14.84138672 35.07951172 13.65738281 35.07113281 12.4375 35.0625 C11.24962891 35.05798828 10.06175781 35.05347656 8.83789062 35.04882812 C5.89187774 35.03699675 2.94596319 35.02051287 0 35 C0 34.01 0 33.02 0 32 C1.32 32 2.64 32 4 32 C4 22.76 4 13.52 4 4 C2.68 3.34 1.36 2.68 0 2 C0 1.34 0 0.68 0 0 Z " fill="#FFFFFF" transform="translate(518,38)"></path></svg> 