<?xml version="1.0" encoding="UTF-8" standalone="no"?> <svg xmlns="http://www.w3.org/2000/svg" version="1.0" width="958.000000pt" height="292.000000pt" viewBox="0 0 958.000000 292.000000" preserveAspectRatio="xMidYMid meet"><g transform="translate(0.000000,292.000000) scale(0.100000,-0.100000)" fill="#000000" stroke="none"><path d="M4145 2763 c242 -87 273 -382 70 -668 -41 -58 -115 -133 -200 -203 l-40 -34 49 34 c74 49 192 164 243 236 75 104 105 190 111 307 5 116 -5 164 -51 231 -36 55 -112 99 -187 109 l-45 6 50 -18z"></path><path d="M3788 2752 c-10 -2 -18 -7 -18 -11 0 -5 -20 -42 -44 -82 -23 -41 -84 -146 -133 -234 -50 -88 -133 -232 -184 -320 -139 -241 -213 -376 -352 -642 -202 -386 -286 -534 -341 -592 l-31 -34 33 19 c62 35 144 170 372 609 150 290 245 462 400 725 95 162 321 563 318 565 -2 1 -11 0 -20 -3z"></path><path d="M5842 2539 c13 -20 25 -32 27 -27 2 6 -9 22 -24 37 l-27 26 24 -36z"></path><path d="M6780 2555 c0 -5 5 -17 10 -25 5 -8 10 -10 10 -5 0 6 -5 17 -10 25 -5 8 -10 11 -10 5z"></path><path d="M2787 2494 c-196 -154 -316 -365 -319 -559 -1 -96 15 -147 57 -184 33 -29 104 -56 128 -48 6 2 -12 14 -39 28 -41 20 -54 34 -77 81 -84 167 14 444 229 647 47 45 84 81 82 81 -2 0 -29 -21 -61 -46z"></path><path d="M7034 2486 c12 -23 22 -39 24 -35 4 9 -24 66 -36 73 -5 3 1 -14 12 -38z"></path><path d="M4990 2497 c0 -13 42 -118 46 -115 2 2 -6 29 -17 59 -20 52 -29 70 -29 56z"></path><path d="M6121 2490 c0 -8 6 -28 14 -45 17 -39 18 -21 0 25 -7 19 -14 28 -14 20z"></path><path d="M6522 2469 c6 -16 12 -28 14 -26 5 5 -13 57 -20 57 -3 0 0 -14 6 -31z"></path><path d="M5691 2459 c-1 -8 11 -26 27 -40 l27 -24 -21 25 c-12 14 -24 32 -27 40 -5 13 -6 13 -6 -1z"></path><path d="M6793 2425 c0 -22 2 -30 4 -17 2 12 2 30 0 40 -3 9 -5 -1 -4 -23z"></path><path d="M6541 2425 c1 -19 18 -51 18 -35 0 8 -4 22 -9 30 -5 8 -9 11 -9 5z"></path><path d="M7062 2405 c0 -16 2 -22 5 -12 2 9 2 23 0 30 -3 6 -5 -1 -5 -18z"></path><path d="M5770 2386 c0 -3 9 -10 20 -16 11 -6 20 -8 20 -6 0 3 -9 10 -20 16 -11 6 -20 8 -20 6z"></path><path d="M5833 2344 c5 -7 12 -25 17 -41 7 -23 8 -24 9 -7 1 12 -7 30 -16 41 -10 10 -14 13 -10 7z"></path><path d="M5052 2319 c6 -16 12 -28 14 -26 5 5 -13 57 -20 57 -3 0 0 -14 6 -31z"></path><path d="M6176 2330 c3 -14 11 -32 16 -40 6 -10 7 -7 2 10 -3 14 -11 32 -16 40 -6 10 -7 7 -2 -10z"></path><path d="M6570 2343 c0 -16 31 -95 36 -90 2 2 -5 25 -16 53 -10 27 -19 43 -20 37z"></path><path d="M6791 2334 c0 -11 3 -14 6 -6 3 7 2 16 -1 19 -3 4 -6 -2 -5 -13z"></path><path d="M5682 2275 c0 -16 2 -22 5 -12 2 9 2 23 0 30 -3 6 -5 -1 -5 -18z"></path><path d="M5666 1831 c-92 -73 -138 -171 -138 -291 0 -97 24 -160 103 -270 133 -185 151 -281 71 -390 l-26 -35 34 26 c57 43 75 84 75 164 -1 81 -20 125 -104 240 -29 39 -64 95 -79 125 -24 49 -27 66 -27 160 0 123 18 172 93 253 51 54 51 60 -2 18z"></path><path d="M5012 1842 c-8 -2 -3 -11 12 -23 38 -30 49 -79 43 -193 -12 -236 -143 -558 -288 -708 -61 -62 -59 -65 8 -12 162 131 322 515 323 774 0 76 -4 101 -19 126 -18 30 -52 45 -79 36z"></path><path d="M5930 1847 c0 -3 21 -15 46 -27 52 -26 89 -76 100 -135 3 -22 11 -48 16 -59 8 -15 12 -16 23 -5 12 12 12 24 1 77 -14 65 -39 103 -86 127 -28 15 -100 30 -100 22z"></path><path d="M4633 1783 c-169 -138 -302 -335 -359 -533 -28 -98 -25 -256 5 -334 47 -118 158 -188 295 -185 l61 2 -61 8 c-121 15 -212 86 -256 198 -17 44 -21 77 -21 156 0 120 18 194 78 322 61 130 133 229 237 328 49 47 87 85 84 85 -2 0 -31 -21 -63 -47z"></path><path d="M6530 1786 c-175 -139 -326 -360 -394 -574 -58 -184 -29 -335 78 -417 48 -36 145 -65 214 -64 l57 1 -57 9 c-272 40 -353 286 -204 614 59 128 159 270 268 378 53 53 96 97 95 97 -1 0 -27 -20 -57 -44z"></path><path d="M6850 1811 c28 -53 -7 -199 -71 -292 -21 -31 -64 -80 -96 -109 l-58 -53 49 34 c72 50 145 135 181 211 53 111 56 228 5 228 -17 0 -19 -3 -10 -19z"></path><path d="M3457 1586 c-3 -7 2 -17 12 -23 40 -25 71 -114 150 -434 81 -325 121 -450 186 -580 71 -140 131 -221 235 -313 132 -118 277 -176 455 -181 l110 -4 -85 9 c-47 5 -92 11 -100 13 -131 34 -227 82 -321 161 -195 164 -325 424 -424 851 -57 248 -94 384 -115 424 -29 58 -92 105 -103 77z"></path><path d="M6428 1213 c6 -2 18 -2 25 0 6 3 1 5 -13 5 -14 0 -19 -2 -12 -5z"></path><path d="M6912 1097 c-118 -110 -187 -180 -152 -156 40 27 229 208 217 209 -4 0 -33 -24 -65 -53z"></path><path d="M5263 1044 c-31 -46 -38 -67 -41 -118 -4 -55 -1 -65 22 -93 49 -58 175 -104 281 -102 l60 2 -69 8 c-89 12 -177 52 -221 100 -47 52 -48 111 -6 193 39 74 21 81 -26 10z"></path><path d="M2567 793 c-4 -3 -7 -17 -7 -30 l0 -23 318 2 317 3 -295 5 -295 5 3 23 c2 16 -2 22 -16 22 -10 0 -22 -3 -25 -7z"></path><path d="M4960 293 c-32 -32 -42 -47 -25 -35 57 41 106 92 89 92 -5 0 -34 -25 -64 -57z"></path><path d="M4571 84 c0 -11 3 -14 6 -6 3 7 2 16 -1 19 -3 4 -6 -2 -5 -13z"></path></g></svg> 